<svg xmlns="http://www.w3.org/2000/svg" xmlns:xlink="http://www.w3.org/1999/xlink" version="1.1" x="0px" y="0px" viewBox="0 0 100 125" enable-background="new 0 0 100 100" xml:space="preserve"><g display="none"><rect x="-300.877" y="-517.172" display="inline" fill="#000000" width="1370.931" height="1263.231"/></g><g><circle cx="67.14" cy="26.249" r="4.071"/><circle cx="51.295" cy="26.249" r="4.071"/><circle cx="35.449" cy="26.249" r="4.071"/><path d="M90.524,37.66V14.073C90.524,9.07,86.454,5,81.451,5H21.139c-5.003,0-9.073,4.07-9.073,9.073V37.66   c0,5.003,4.07,9.073,9.073,9.073h3.349l8.687,9.653l1.483-1.76c0.037-0.045,3.549-4.21,6.972-7.893h39.821   C86.454,46.732,90.524,42.662,90.524,37.66z M86.517,37.66c0,2.793-2.272,5.065-5.065,5.065H39.896l-0.593,0.63   c-2.294,2.436-4.712,5.198-6.216,6.941l-6.814-7.572h-5.134c-2.793,0-5.065-2.272-5.065-5.065V14.073   c0-2.793,2.272-5.065,5.065-5.065h60.312c2.793,0,5.065,2.272,5.065,5.065V37.66z"/><path d="M39.801,60.615c0,5.633,4.566,10.199,10.199,10.199s10.199-4.566,10.199-10.199c0-5.633-4.566-10.199-10.199-10.199   S39.801,54.982,39.801,60.615z M56.393,60.615c0,3.525-2.868,6.393-6.393,6.393s-6.393-2.868-6.393-6.393   c0-3.525,2.868-6.393,6.393-6.393S56.393,57.09,56.393,60.615z"/><path d="M80.821,80.798h-7.908c-2.34,0-4.501,0.776-6.262,2.07c-1.624-4.527-5.954-7.794-11.022-7.794H44.371   c-5.068,0-9.398,3.267-11.022,7.794c-1.76-1.294-3.922-2.07-6.262-2.07h-7.908c-5.843,0-10.624,3.779-10.624,9.623v3.655   c0,0.51,0.414,0.924,0.924,0.924h1.959c0.51,0,0.924-0.414,0.924-0.924v-3.655c0-3.766,3.053-5.817,6.819-5.817h7.908   c1.672,0,3.201,0.609,4.386,1.614c0.769,0.652,1.182,1.632,1.182,2.64v5.218c0,0.51,0.414,0.924,0.924,0.924h1.959   c0.51,0,0.924-0.414,0.924-0.924V86.79c0-4.369,3.541-7.91,7.91-7.91h11.258c4.368,0,7.91,3.541,7.91,7.91v7.287   c0,0.51,0.414,0.924,0.924,0.924h1.959c0.51,0,0.924-0.414,0.924-0.924v-5.218c0-1.008,0.413-1.988,1.182-2.64   c1.185-1.005,2.714-1.614,4.386-1.614h7.908c3.766,0,6.818,2.051,6.818,5.817v3.655c0,0.51,0.414,0.924,0.924,0.924h1.958   c0.51,0,0.924-0.414,0.924-0.924v-3.655C91.445,84.578,86.664,80.798,80.821,80.798z"/><path d="M66.668,67.425c0,5.633,4.566,10.199,10.199,10.199c5.633,0,10.199-4.566,10.199-10.199   c0-5.633-4.566-10.199-10.199-10.199C71.234,57.225,66.668,61.792,66.668,67.425z M83.26,67.425c0,3.525-2.868,6.393-6.393,6.393   c-3.525,0-6.393-2.868-6.393-6.393c0-3.525,2.868-6.393,6.393-6.393C80.392,61.031,83.26,63.899,83.26,67.425z"/><path d="M23.133,57.225c-5.633,0-10.199,4.566-10.199,10.199c0,5.633,4.566,10.199,10.199,10.199   c5.633,0,10.199-4.566,10.199-10.199C33.332,61.792,28.766,57.225,23.133,57.225z M23.133,73.818c-3.525,0-6.393-2.868-6.393-6.393   c0-3.525,2.868-6.393,6.393-6.393c3.525,0,6.393,2.868,6.393,6.393C29.526,70.95,26.658,73.818,23.133,73.818z"/></g></svg>
