<svg xmlns="http://www.w3.org/2000/svg" xmlns:xlink="http://www.w3.org/1999/xlink" version="1.1" x="0px" y="0px" viewBox="0 0 100 125" style="enable-background:new 0 0 100 100;" xml:space="preserve"><rect x="47.3" y="1.8" width="5.1" height="5.1"/><rect x="47.3" y="93.2" width="5.1" height="5.1"/><rect x="13.8" y="78.6" width="5.1" height="5.1"/><rect x="79.4" y="78.6" width="5.1" height="5.1"/><rect x="13.8" y="15.8" width="5.1" height="5.1"/><rect x="79.4" y="15.8" width="5.1" height="5.1"/><rect x="1" y="47.1" width="5.1" height="5.1"/><rect x="93.7" y="47.1" width="5.1" height="5.1"/><path d="M10.3,24.4c-3.8,5.8-6.2,12.2-7.1,19.1l-0.1,0.6h3l0.1-0.5c1-6.7,3.5-13.1,7.3-18.7l0.6-0.8h-3.5L10.3,24.4  z"/><path d="M6,55.7l-0.1-0.5H3l0.1,0.6c0.9,7.1,3.2,13.6,7,19.6l0.2,0.2h3.5l-0.6-0.8C9.4,69.1,6.9,62.5,6,55.7z"/><path d="M93.6,43.7l0.1,0.5h3l-0.1-0.6c-1-6.9-3.4-13.3-7.1-19.1l-0.2-0.2h-3.5l0.6,0.8  C90.1,30.6,92.6,37,93.6,43.7z"/><path d="M93.8,55.2l-0.1,0.5c-0.9,6.8-3.4,13.5-7.2,19.1l-0.6,0.8h3.5l0.2-0.2c3.8-5.9,6.2-12.5,7-19.6l0.1-0.6  L93.8,55.2L93.8,55.2z"/><path d="M74,13.1l0.1,0.1h5l-1.3-1C71.5,7.4,63.9,4.3,56,3.3l-0.6-0.1v3l0.5,0.1C62.4,7.2,68.5,9.4,74,13.1z"/><path d="M21.8,12.2l-1.3,1h5l0.1-0.1c5.6-3.7,11.7-5.9,18.3-6.8l0.5-0.1v-3l-0.6,0.1C35.8,4.3,28.2,7.4,21.8,12.2z"/><path d="M74.5,86.8c-5.6,3.7-12,6.2-18.7,7.1L55.3,94v3l0.6-0.1c8.1-1.1,15.8-4.2,22.3-9.2l1.3-1L74.5,86.8  L74.5,86.8z"/><path d="M25.2,86.8L25,86.7h-4.9l1.3,1c6.5,5,14.3,8.1,22.4,9.2l0.6,0.1v-3l-0.5-0.1C37.2,93,30.7,90.5,25.2,86.8z"/><path d="M61.6,25.2c-0.3-0.2-0.8-0.2-1.1-0.1l-0.1,0.1c-0.2,0.1-0.3,0.3-0.4,0.4l-2.6,4.3c-0.1,0.3-0.2,0.6-0.1,0.9  c0.1,0.3,0.3,0.6,0.5,0.7c0.4,0.2,0.8,0.2,1.1,0c0.2-0.1,0.3-0.3,0.4-0.4l2.6-4.3c0.1-0.3,0.2-0.6,0.1-0.9  C62,25.6,61.8,25.4,61.6,25.2z"/><path d="M38.3,25.2c0.3-0.2,0.8-0.2,1.1-0.1l0.1,0.1c0.2,0.1,0.3,0.3,0.4,0.4l2.6,4.3c0.1,0.3,0.2,0.6,0.1,0.9  s-0.3,0.6-0.5,0.7c-0.4,0.2-0.8,0.2-1.1,0c-0.2-0.1-0.3-0.3-0.4-0.4l-2.6-4.3c-0.1-0.3-0.2-0.6-0.1-0.9C37.8,25.6,38,25.4,38.3,25.2  z"/><path d="M32.9,36.8c0.1,0,0.2,0,0.3-0.1c0.3-0.1,0.6-0.3,0.7-0.5c0.3-0.6,0.1-1.3-0.4-1.6l-4.3-2.5  c-0.2-0.1-0.4-0.2-0.6-0.2h-0.1c-0.4,0-0.7,0.3-0.9,0.6c-0.1,0.3-0.2,0.6-0.1,0.9c0.1,0.3,0.3,0.6,0.5,0.7l4.3,2.5  C32.6,36.7,32.7,36.8,32.9,36.8z"/><path d="M72.6,32.5c-0.2-0.3-0.5-0.6-0.9-0.6h-0.1c-0.2,0-0.4,0.1-0.6,0.2l-4.3,2.5c-0.3,0.1-0.4,0.4-0.6,0.7  c-0.1,0.3-0.1,0.6,0.1,0.9c0.2,0.4,0.6,0.6,1,0.6c0.2,0,0.4-0.1,0.6-0.1l4.3-2.5c0.3-0.1,0.4-0.4,0.5-0.7  C72.8,33.1,72.8,32.8,72.6,32.5z"/><path d="M50.1,22.8c-0.4,0-0.8,0.2-0.9,0.5l-0.1,0.1c-0.1,0.2-0.1,0.4-0.1,0.6l-0.1,5c0,0.3,0.1,0.6,0.3,0.8  c0.2,0.3,0.5,0.4,0.8,0.4c0.4,0,0.8-0.2,1-0.6c0.1-0.2,0.2-0.4,0.2-0.6l0.1-5c0-0.3-0.1-0.6-0.3-0.8C50.6,22.9,50.4,22.8,50.1,22.8z  "/><path d="M36,62.8v6.5h29v-6.5c0-4-3.1-7-7-7H43.1C39.3,55.8,36,58.9,36,62.8z"/><path d="M50.5,52.9c4.5,0,8.1-3.6,8.1-8.1s-3.6-8.1-8.1-8.1s-8.1,3.6-8.1,8.1C42.5,49.2,46.1,52.9,50.5,52.9z"/><path d="M31.6,54.1c3.5,0,6.3-2.9,6.3-6.3c0-3.5-2.8-6.4-6.3-6.4c-3.5,0-6.4,2.9-6.4,6.4  C25.2,51.3,28.1,54.1,31.6,54.1z"/><path d="M69.5,54.1c3.5,0,6.3-2.9,6.3-6.3c0-3.5-2.9-6.3-6.3-6.3c-3.5,0-6.3,2.9-6.3,6.3  C63.1,51.2,65.9,54.1,69.5,54.1z"/><path d="M25.7,56.4c-3,0-5.5,2.4-5.5,5.5v5.1h13.6v-4.2c0-2.6,1.2-5,3-6.5H25.7z"/><path d="M75.3,56.4H64.4c1.8,1.6,3,3.9,3,6.5v4.2h13.6v-5.1C80.9,58.9,78.4,56.4,75.3,56.4z"/><text x="0" y="115" fill="#000000" font-size="5px" font-weight="bold" font-family="'Helvetica Neue', Helvetica, Arial-Unicode, Arial, Sans-serif">Created by Aneeque Ahmed</text><text x="0" y="120" fill="#000000" font-size="5px" font-weight="bold" font-family="'Helvetica Neue', Helvetica, Arial-Unicode, Arial, Sans-serif">from the Noun Project</text></svg>