<svg xmlns="http://www.w3.org/2000/svg" xmlns:xlink="http://www.w3.org/1999/xlink" version="1.1" x="0px" y="0px" viewBox="0 0 100 125" enable-background="new 0 0 100 100" xml:space="preserve" fill="#e8fdf5"><g><g><path d="M35.291,67.631c0.122,0.095,0.421,0.144,0.416,0.335c-0.003,0.127-0.12,0.238-0.178,0.347    c-0.049,0.094-0.079,0.193-0.112,0.296c-0.076,0.225-0.155,0.46-0.25,0.687c-0.069,0.166-0.179,0.314-0.276,0.472    c-0.094,0.152-0.165,0.33-0.272,0.474c-0.134,0.18-0.417,0.281-0.6,0.408c-0.161,0.113-0.291,0.236-0.378,0.413    c-0.084,0.168-0.159,0.321-0.283,0.465c-0.163,0.192-0.3,0.433-0.502,0.586c-0.713,0.541-1.299,1.23-1.919,1.871    c-0.122,0.127-0.244,0.285-0.349,0.428c-0.095,0.13-0.186,0.268-0.321,0.362c-0.139,0.095-0.18,0.198-0.259,0.348    c-0.084,0.157-0.156,0.305-0.268,0.448c-0.086,0.107-0.176,0.214-0.25,0.326c-0.05,0.079-0.104,0.206-0.191,0.244    c-0.102,0.047-0.174-0.063-0.285-0.039c-0.148,0.034-0.188,0.157-0.223,0.277c-0.043,0.148-0.075,0.287-0.158,0.422    c-0.081,0.131-0.183,0.255-0.257,0.389c-0.028,0.05-0.056,0.202-0.106,0.231c-0.116,0.067-0.113-0.134-0.143-0.204    c-0.1-0.241-0.233,0.192-0.313,0.268c-0.191,0.184-0.362,0.348-0.493,0.589c-0.142,0.259-0.349,0.514-0.577,0.703    c-0.125,0.104-0.257,0.194-0.389,0.287c-0.118,0.081-0.223,0.191-0.362,0.234c-0.147,0.047-0.23,0.054-0.357,0.154    c-0.139,0.112-0.294,0.242-0.408,0.38c-0.395,0.476-0.644,1.062-1.103,1.48c-0.137,0.124-0.294,0.305-0.447,0.099    c-0.122-0.164-0.335-0.406-0.393-0.6c-0.031-0.106,0.008-0.198,0.054-0.291c0.071-0.14,0.102-0.171,0.256-0.171    c0.223,0,0.463,0.062,0.65-0.072c0.104-0.076,0.204-0.147,0.277-0.259c0.07-0.107,0.139-0.227,0.221-0.331    c0.142-0.179,0.358-0.345,0.39-0.581c0.027-0.206-0.251-0.489-0.421-0.589c-0.162-0.095-0.395-0.208-0.576-0.095    c-0.12,0.076-0.137,0.25-0.283,0.294c-0.18,0.053-0.428-0.043-0.426,0.228c0,0.108,0.005,0.179-0.097,0.215    c-0.103,0.037-0.172,0.01-0.205,0.139c-0.017,0.069-0.033,0.243-0.008,0.312c0.029,0.088,0.112,0.117,0.126,0.215    c0.027,0.188-0.085,0.265-0.203,0.376c-0.059,0.054-0.089,0.121-0.14,0.179c-0.015,0.018-0.053,0.027-0.071,0.043    c-0.022,0.021-0.05,0.08-0.069,0.107c-0.068,0.095-0.149,0.182-0.215,0.277c-0.127,0.185-0.259,0.236-0.46,0.323    c-0.282,0.122-0.565,0.222-0.832,0.379c-0.185,0.111-0.359,0.244-0.543,0.357c-0.212,0.131-0.407,0.274-0.599,0.434    c-0.152,0.128-0.307,0.268-0.485,0.355c-0.107,0.05-0.228,0.084-0.31,0.166c-0.086,0.088-0.104,0.188-0.197,0.026    c-0.064-0.112-0.085-0.198-0.229-0.188c-0.036,0.333-0.269,0.4-0.506,0.588c-0.082,0.066-0.159,0.166-0.27,0.183    c-0.18,0.027-0.186-0.175-0.286-0.269c-0.086-0.082-0.236,0.005-0.331,0.077c-0.12,0.091-0.23,0.186-0.354,0.274    c-0.138,0.097-0.272,0.183-0.349,0.335c-0.083,0.162-0.14,0.33-0.247,0.482c-0.134,0.189-0.533,0.854-0.823,0.743    c-0.095-0.036-0.112-0.151-0.206-0.196c-0.114-0.053-0.257-0.027-0.353-0.128c-0.08-0.085,0-0.175-0.042-0.267    c-0.071-0.147-0.139,0.028-0.191,0.088c-0.073,0.087-0.139,0.067-0.25,0.072c-0.342,0.016-0.601,0.097-0.862,0.323    c-0.234,0.203-0.418,0.454-0.52,0.749c-0.094,0.269-0.271,0.395-0.505,0.547c-0.229,0.152-0.4,0.277-0.691,0.194    c-0.131-0.037-0.272-0.069-0.344,0.075c-0.039,0.077-0.042,0.209-0.139,0.256c-0.225,0.111-0.358-0.237-0.502-0.288    c-0.246-0.089-0.497,0.067-0.689,0.208c-0.094,0.069-0.191,0.135-0.287,0.199c-0.108,0.072-0.229,0.136-0.31,0.236    c-0.095,0.119-0.178,0.245-0.29,0.348c-0.113,0.103-0.455,0.261-0.605,0.153c-0.063-0.045-0.041-0.332-0.169-0.263    c-0.108,0.058-0.033,0.3-0.214,0.331c-0.172,0.029-0.283-0.26-0.37-0.364c-0.12-0.146-0.29-0.238-0.402-0.39    c-0.117-0.159-0.184-0.366-0.27-0.544c-0.076-0.155-0.167-0.334-0.218-0.497c-0.043-0.14-0.058-0.391-0.018-0.533    c0.039-0.14,0.192-0.154,0.26-0.269c0.082-0.138,0.064-0.346,0.072-0.504c0.008-0.154,0.076-0.241,0.187-0.345    c0.108-0.101,0.225-0.193,0.336-0.294c0.095-0.086,0.223-0.295,0.368-0.18c0.081,0.063,0.127,0.334,0.223,0.124    c0.046-0.101,0.027-0.215,0.067-0.315c0.103-0.25,0.327,0.055,0.463-0.139c0.089-0.126,0.033-0.131-0.066-0.207    c-0.102-0.077-0.153-0.199-0.186-0.316c-0.009-0.036-0.053-0.101-0.028-0.142c0.022-0.039,0.086-0.024,0.117-0.057    c0.193-0.206-0.196-0.381-0.227-0.555c-0.017-0.101,0.102-0.229,0.16-0.3c0.079-0.099,0.127-0.169,0.172-0.289    c0.04-0.101,0.147-0.212,0.152-0.324c0.005-0.124-0.113-0.275-0.151-0.393c-0.029-0.097,0.006-0.278-0.045-0.358    c-0.05-0.079-0.229-0.124-0.301-0.182c-0.086-0.071-0.158-0.161-0.191-0.269c-0.046-0.152,0.003-0.157,0.118-0.246    c0.147-0.114,0.033-0.156-0.055-0.276c-0.084-0.112-0.127-0.263-0.182-0.39c-0.042-0.103-0.104-0.204-0.075-0.322    c0.031-0.123,0.182-0.211,0.274-0.29c0.086-0.072,0.144-0.169,0.228-0.238c0.122-0.101,0.138,0.003,0.269,0.023    c0.158,0.026,0.263-0.14,0.336-0.254c0.098-0.149,0.176-0.246,0.318-0.36c0.091-0.075,0.073-0.13,0.075-0.244    c0.002-0.264,0.286-0.056,0.421-0.215c0.184-0.216,0.336-0.52,0.587-0.668c0.2-0.117,0.491-0.011,0.668,0.096    c0.255,0.157,0.504,0.187,0.807,0.215c0.116,0.01,0.225,0.036,0.322-0.051c0.057-0.051,0.091-0.125,0.148-0.177    c0.059-0.054,0.131-0.086,0.191-0.141c0.126-0.12,0.225-0.272,0.303-0.426c0.049-0.101,0.12-0.204,0.159-0.308    c0.048-0.13-0.006-0.172-0.053-0.291c-0.1-0.264,0.055-0.559,0.184-0.779c0.135-0.229,0.077-0.504,0.244-0.722    c0.162-0.211,0.541-0.031,0.773-0.125c0.227-0.093,0.457-0.287,0.528-0.527c0.048-0.157,0.002-0.569,0.214-0.613    c0.191-0.04,0.47,0.252,0.625,0.343c0.11,0.063,0.255,0.063,0.363-0.003c0.112-0.066,0.135-0.172,0.011-0.244    c-0.114-0.066-0.267-0.042-0.384-0.099c-0.106-0.05-0.192-0.129-0.278-0.201c-0.188-0.157-0.474-0.174-0.715-0.181    c-0.128-0.005-0.25,0.008-0.373-0.022c-0.09-0.022-0.254-0.039-0.322-0.107c-0.175-0.173,0.04-0.46,0.079-0.634    c0.023-0.109,0.04-0.233,0.018-0.347c-0.037-0.198-0.138-0.364-0.108-0.576c0.029-0.198,0.153-0.353,0.312-0.467    c0.276-0.197,0.426-0.433,0.528-0.751c0.091-0.283,0.149-0.582,0.224-0.87c0.026-0.101,0.078-0.186,0.11-0.284    c0.067-0.214-0.025-0.454-0.119-0.641c-0.037-0.075-0.111-0.166-0.131-0.249c-0.033-0.132,0.036-0.249,0.113-0.347    c0.095-0.122,0.183-0.263,0.22-0.419c0.034-0.14,0.137-0.292,0.129-0.436c-0.009-0.152-0.175-0.226-0.287-0.312    c-0.112-0.085-0.184-0.212-0.312-0.269c-0.098-0.042-0.233-0.055-0.301-0.152c-0.045-0.063-0.072-0.202-0.099-0.276    c-0.01-0.029-0.036-0.098-0.031-0.13c0.01-0.073,0.045-0.049,0.085-0.098c0.094-0.116-0.005-0.22-0.032-0.353    c-0.045-0.223-0.019-0.464,0.024-0.684c0.023-0.117,0.03-0.228,0.04-0.345c0.017-0.175,0.048-0.378,0.097-0.546    c0.103-0.354,0.447-0.585,0.659-0.852c0.13-0.164,0.076-0.283,0.125-0.467c0.036-0.138,0.127-0.188,0.245-0.257    c0.152-0.089,0.359-0.369,0.541-0.252c0.067,0.042,0.138,0.21,0.247,0.135c0.169-0.115-0.064-0.246-0.067-0.325    c-0.005-0.114,0.231-0.178,0.318-0.183c0.154-0.009,0.123,0.171,0.238,0.148c0.004-0.079-0.021-0.193,0.014-0.266    c0.05-0.104,0.166-0.081,0.265-0.085c0.169-0.009,0.138-0.091,0.256-0.172c0.121-0.084,0.192,0.074,0.206,0.183    c0.01,0.081-0.1,0.263-0.041,0.323c0.098,0.099,0.251-0.124,0.294-0.183c0.033-0.049,0.073-0.09,0.104-0.14    c0.022-0.035,0.046-0.116,0.075-0.139c0.127-0.106,0.302,0.141,0.384,0.216c0.088,0.08,0.211,0.157,0.215,0.276    c0.003,0.074-0.081,0.276,0.076,0.216c0.073-0.027,0.116-0.179,0.223-0.087c0.08,0.069,0.006,0.204,0.161,0.192    c0.004-0.067,0-0.135,0.004-0.201c0.07-0.041,0.184,0.016,0.245-0.023c0.046-0.028,0.031-0.211,0.137-0.13    c0.079,0.061,0.027,0.178,0.121,0.229c0.094,0.053,0.207-0.008,0.301,0.072c0.08,0.069,0.084,0.165,0.064,0.263    c-0.017,0.077-0.064,0.225,0.094,0.167c0.139-0.05,0.031-0.219,0.184-0.247c0.094-0.017,0.229,0.009,0.322,0.022    c0.121,0.017,0.184,0.045,0.257,0.159c0.048,0.073,0.094,0.207,0.183,0.25c0.086,0.042,0.174,0.014,0.203-0.057    c0.022-0.051-0.013-0.125,0.04-0.17c0.129-0.108,0.234,0.04,0.266,0.142c0.027,0.088,0.035,0.239,0.166,0.212    c0.159-0.031,0.023-0.273,0.101-0.341c0.066-0.056,0.276,0.021,0.341,0.044c0.089,0.029,0.176,0.131,0.255,0.086    c0.082-0.049,0.055-0.166,0.086-0.238c0.04-0.094,0.139-0.159,0.243-0.172c0.204-0.03,0.067,0.153,0.175,0.161    c0.013,0.001,0.028,0.002,0.041-0.001c-0.006-0.106,0.023-0.155,0.12-0.182c0.148-0.042,0.242-0.016,0.331-0.172    c0.042-0.075,0.022-0.086,0.111-0.129c0.146-0.069,0.358-0.055,0.516-0.054c0.151,0.003,0.345,0.055,0.467,0.151    c0.104,0.08,0.102,0.199,0.227,0.258c0.103,0.049,0.291,0.095,0.397,0.04c0.04-0.019,0.064-0.067,0.099-0.084    c0.062-0.029,0.143-0.009,0.207-0.022c0.184-0.04,0.292-0.161,0.403-0.296c0.16-0.197,0.367-0.303,0.601-0.359    c0.12-0.029,0.234-0.044,0.35-0.081c0.127-0.04,0.227-0.111,0.344-0.166c0.265-0.125,0.56-0.115,0.85-0.115    c0.199,0,0.359,0.026,0.533,0.121c0.147,0.08,0.353,0.08,0.521,0.041c0.17-0.038,0.353-0.12,0.505-0.199    c0.143-0.075,0.27-0.17,0.416-0.24c0.126-0.059,0.257-0.103,0.377-0.176c0.08-0.048,0.233-0.194,0.331-0.18    c0.082,0.012,0.161,0.162,0.225,0.205c0.238,0.156,0.287-0.125,0.483-0.184c0.107-0.034,0.151-0.043,0.228,0.032    c0.072,0.069,0.108,0.151,0.201,0.187c0.088,0.032,0.206-0.005,0.257,0.094c0.039,0.072-0.034,0.234,0.018,0.292    c0.047,0.052,0.218,0.013,0.282,0.032c0.112,0.032,0.218,0.116,0.277,0.212c0.165,0.267,0.101,0.601,0.143,0.902    c0.033,0.244,0.01,0.504,0.01,0.748c0,0.251,0.021,0.493,0.021,0.743c0,0.191,0.004,0.377-0.022,0.564    c-0.016,0.124-0.032,0.294,0.011,0.412c0.103,0.281,0.34,0.502,0.518,0.73c0.057,0.072,0.127,0.183,0.104,0.282    c-0.026,0.112-0.126,0.091-0.181,0.171c-0.098,0.143,0.111,0.119,0.197,0.139c0.086,0.019,0.261,0.095,0.255,0.209    c-0.008,0.12-0.198,0.081-0.194,0.207c0.004,0.124,0.214,0.18,0.283,0.27c0.134,0.172,0.146,0.448,0.245,0.641    c0.108,0.209,0.257,0.331,0.411,0.505C34.95,67.268,35.114,67.493,35.291,67.631z"/><path d="M15.486,66.349c0.023,0.075-0.017,0.09-0.066,0.134c-0.122,0.108-0.188,0.292-0.276,0.43    c-0.079,0.125-0.073,0.297-0.026,0.434c0.048,0.135,0.133,0.257,0.191,0.388c0.054,0.121,0.172,0.261,0.133,0.4    c-0.017,0.062-0.066,0.109-0.084,0.172c-0.017,0.057,0.001,0.151-0.03,0.199c-0.077,0.121-0.196-0.125-0.229-0.176    c-0.088-0.135-0.199-0.258-0.281-0.397c-0.055-0.095-0.107-0.192-0.166-0.285c-0.045-0.071-0.103-0.143-0.126-0.225    c-0.046-0.16,0.084-0.292,0.085-0.453c0.001-0.111-0.006-0.225,0-0.336c0.005-0.103-0.005-0.223,0.035-0.319    c0.033-0.084,0.085-0.157,0.137-0.23c0.031-0.044,0.075-0.127,0.139-0.101c0.045,0.017,0.059,0.075,0.109,0.093    c0.057,0.019,0.121,0.005,0.18,0.021c0.054,0.015,0.104,0.032,0.144,0.069C15.403,66.21,15.468,66.29,15.486,66.349z"/><path d="M15.136,72.598c0,0.001-0.001,0.003-0.001,0.004c-0.019,0.05-0.059,0.101-0.072,0.153    c-0.027,0.11-0.04,0.234-0.049,0.347c-0.006,0.079,0.005,0.157-0.006,0.234c-0.007,0.045-0.008,0.135-0.041,0.166    c-0.063,0.058-0.246-0.001-0.322-0.005c-0.077-0.003-0.149-0.008-0.215,0.031c-0.049,0.03-0.1,0.067-0.14,0.107    c-0.032,0.032-0.067,0.09-0.117,0.093c-0.066,0.005-0.097-0.075-0.112-0.128c-0.048-0.162,0.001-0.348,0.046-0.504    c0.051-0.175,0.069-0.352,0.157-0.517c0.028-0.054,0.052-0.086,0.113-0.094c0.077-0.01,0.111,0.029,0.178,0.056    c0.071,0.027,0.134-0.018,0.204-0.041c0.073-0.023,0.137-0.028,0.214-0.028c0.049,0,0.119-0.012,0.16,0.016    C15.182,72.52,15.162,72.558,15.136,72.598z"/></g><g><path d="M72.43,24.089c0.072-0.147,0.539-0.031,0.361-0.287c-0.053-0.076-0.188-0.091-0.26-0.139    c-0.082-0.054-0.113-0.129-0.126-0.228c-0.019-0.144,0.009-0.324-0.051-0.46c-0.05-0.113-0.165-0.151-0.272-0.193    c-0.149-0.058-0.261-0.16-0.329-0.306c-0.055-0.117-0.114-0.308-0.13-0.435c-0.016-0.125,0.015-0.247-0.025-0.364    c-0.097-0.287-0.366-0.125-0.467,0.077c-0.115,0.229,0.016,0.448,0.148,0.634c0.104,0.147,0.327,0.385,0.312,0.577    c-0.008,0.1-0.107,0.185-0.151,0.276c-0.05,0.102-0.089,0.171-0.164,0.246c-0.182,0.183-0.028,0.281,0.084,0.467    c0.07,0.116,0.141,0.238,0.199,0.36c0.075,0.166,0.088,0.346,0.173,0.509c0.069,0.131,0.175,0.194,0.274,0.299    c0.083,0.085,0.115,0.206,0.164,0.31c0.081,0.182,0.251,0.538,0.421,0.179c0.053-0.108,0.081-0.225,0.161-0.319    c0.06-0.071,0.127-0.104,0.147-0.204c0.038-0.198-0.114-0.402-0.228-0.547C72.574,24.416,72.332,24.284,72.43,24.089z"/><path d="M72.308,18.931c-0.136-0.003-0.156,0.296-0.322,0.221c-0.066-0.028-0.064-0.273-0.096-0.341    c-0.035-0.076-0.104-0.023-0.066-0.142c0.014-0.042,0.144-0.115,0.179-0.142c0.208-0.153,0.43-0.409,0.192-0.663    c-0.132-0.142-0.269-0.095-0.434-0.129c-0.18-0.036-0.109-0.179-0.258-0.225c-0.189-0.059-0.6,0.377-0.547,0.563    c0.022,0.08,0.103,0.048,0.129,0.1c0.052,0.104-0.024,0.112-0.066,0.191c-0.075,0.142-0.051,0.232-0.08,0.385    c-0.032,0.17-0.126,0.135-0.252,0.229c-0.137,0.1-0.214,0.234-0.295,0.38c-0.152,0.275-0.267,0.63-0.47,0.87    c-0.236,0.278-0.456-0.13-0.57-0.325c-0.109-0.184-0.439-0.4-0.421-0.637c0.272-0.009,0.361,0.473,0.592,0.482    c0.173,0.007,0.116-0.199,0.101-0.306c-0.005-0.036-0.043-0.149-0.008-0.178c0.085-0.071,0.078,0.055,0.117,0.081    c0.281,0.188,0.327-0.326,0.419-0.514c0.077-0.157,0.193-0.121,0.318-0.231c0.13-0.115,0.063-0.242,0.084-0.399    c0.023-0.165,0.162-0.223,0.194-0.385c0.032-0.165-0.014-0.243,0.095-0.388c0.043-0.057,0.101-0.103,0.133-0.173    c0.026-0.055,0.018-0.124,0.057-0.169c0.003-0.004,0.007-0.006,0.009-0.008l-0.005-0.005c-0.258-0.112-3.287-1.176-3.74-1.383    c-0.093-0.044-0.325-0.097-0.43-0.049c-0.163,0.075,0.043,0.148,0.062,0.287c-0.165,0.021-2.092-0.726-2.167-0.773    c-0.172-0.108-0.045-0.295-0.169-0.444c-0.068-0.082-0.136-0.055-0.14-0.18c-0.004-0.122,0.072-0.116,0.117-0.21    c0.114-0.238-0.063-0.255-0.182-0.386c-0.153-0.169,0.142-0.622-0.274-0.609c-0.139,0.005-0.251,0.121-0.337-0.035    c-0.036-0.066,0.004-0.114-0.049-0.182c-0.037-0.048-0.109-0.082-0.164-0.104c-0.156-0.061-0.194-0.085-0.306-0.214    c-0.137-0.154-0.193-0.138-0.222,0.06c-0.032,0.232-0.079,0.162-0.193,0.021c-0.077-0.094-0.202-0.115-0.289-0.206    c0.303-0.035,0.395-0.498,0.045-0.377c-0.372,0.127-0.04,0.382-0.255,0.595c-0.103,0.102-0.236,0.041-0.274,0.214    c-0.025,0.111,0.042,0.215-0.015,0.322c-0.063,0.116-0.191,0.124-0.246,0.238c-0.057,0.118-0.049,0.273-0.095,0.403    c-0.302,0.058-6.606-2.709-7.013-2.826c-0.019,0.081-0.039,0.162-0.05,0.241c-0.047,0.327-0.034,0.657-0.094,0.984    c-0.055,0.304-0.176,0.588-0.26,0.883c-0.095,0.336-0.153,0.716-0.277,1.035c-0.226,0.582-0.478,1.138-0.645,1.747    c-0.091,0.333-0.191,0.675-0.301,1.002c-0.049,0.14-0.14,0.292-0.129,0.445c0.002,0.026,0.006,0.05,0.013,0.072    c0.15,0.157,0.29,0.304,0.309,0.323c0.003,0.002,0.005,0.005,0.007,0.008c0.031,0.029,0.06,0.06,0.087,0.092    c0.009,0.01,0.018,0.021,0.027,0.032c0.047,0.058,0.091,0.118,0.139,0.18c0.012,0.015,0.027,0.03,0.041,0.045    c0.006,0.007,0.011,0.014,0.018,0.02c0.014,0.013,0.03,0.025,0.046,0.038c0.009,0.007,0.017,0.015,0.027,0.022    c0.013,0.009,0.027,0.017,0.04,0.026c0.014,0.009,0.027,0.018,0.041,0.026c0.02,0.011,0.041,0.02,0.062,0.029    c0.008,0.003,0.015,0.008,0.023,0.011l0.083-0.098l0.333-0.391c0.016-0.019,0.034-0.036,0.052-0.053    c0.006-0.006,0.011-0.013,0.018-0.018c0.004-0.003,0.008-0.006,0.012-0.009c0.18-0.146,0.434-0.168,0.688-0.048    c0.317,0.15,0.61,0.525,0.528,0.923c-0.004,0.017-0.009,0.034-0.016,0.05l-0.641,1.388v0c-0.009,0.018-0.025,0.051-0.043,0.085    c-0.019,0.037-0.037,0.073-0.054,0.107c-0.039,0.077-0.079,0.154-0.12,0.229c-0.031,0.057-0.063,0.113-0.095,0.169    c-0.011,0.019-0.021,0.037-0.032,0.056c-0.043,0.074-0.088,0.147-0.133,0.22l0,0c-0.091,0.144-0.186,0.285-0.285,0.422    c-0.001,0.002-0.003,0.004-0.004,0.006c-0.043,0.059-0.087,0.117-0.131,0.175c-0.008,0.011-0.016,0.022-0.024,0.033    c-0.038,0.048-0.076,0.096-0.115,0.143c-0.016,0.019-0.031,0.039-0.047,0.058c-0.023,0.028-0.047,0.055-0.071,0.082    c-0.032,0.038-0.064,0.076-0.097,0.113c-0.021,0.024-0.042,0.048-0.063,0.072c-0.019,0.021-0.038,0.043-0.056,0.064    c-0.016,0.019-0.032,0.038-0.048,0.057c-0.022,0.026-0.045,0.053-0.067,0.079c-0.018,0.022-0.036,0.045-0.054,0.067    c-0.018,0.023-0.037,0.046-0.055,0.069c-0.022,0.029-0.043,0.058-0.065,0.087c-0.013,0.017-0.026,0.034-0.038,0.051    c-0.025,0.035-0.049,0.07-0.073,0.106c-0.008,0.012-0.017,0.024-0.025,0.037c-0.025,0.038-0.049,0.077-0.073,0.117    c-0.006,0.01-0.013,0.021-0.019,0.031c-0.023,0.04-0.046,0.08-0.068,0.121c-0.006,0.011-0.013,0.022-0.019,0.034    c-0.027,0.051-0.052,0.102-0.077,0.156c-0.001,0.002-0.002,0.004-0.003,0.007c0,0.001-0.001,0.002-0.001,0.003    c-0.019,0.041-0.037,0.084-0.055,0.127c-0.006,0.014-0.012,0.028-0.017,0.042c-0.013,0.032-0.026,0.065-0.039,0.097    c-0.02,0.049-0.039,0.099-0.06,0.148c-0.004,0.009-0.008,0.018-0.012,0.028c-0.013,0.031-0.026,0.061-0.039,0.091    c-0.007,0.016-0.015,0.032-0.022,0.048c-0.012,0.025-0.024,0.05-0.036,0.074c-0.007,0.015-0.015,0.029-0.023,0.044    c-0.02,0.037-0.041,0.074-0.063,0.109c-0.001,0.001-0.001,0.002-0.001,0.003c-0.027,0.042-0.055,0.084-0.082,0.125    c-0.002,0.003-0.004,0.006-0.006,0.009c-0.024,0.036-0.047,0.071-0.07,0.107c-0.007,0.011-0.014,0.023-0.021,0.034    c-0.019,0.03-0.037,0.061-0.054,0.093c-0.006,0.011-0.013,0.023-0.018,0.034c-0.022,0.042-0.042,0.085-0.059,0.131    c0,0.001-0.001,0.002-0.001,0.002c-0.014,0.037-0.026,0.074-0.036,0.112c-0.001,0.004-0.002,0.007-0.003,0.011    c-0.011,0.039-0.02,0.077-0.028,0.117c0,0.001,0,0.002-0.001,0.002c-0.012,0.058-0.023,0.117-0.033,0.176    c-0.006,0.035-0.012,0.07-0.017,0.104c-0.001,0.005-0.002,0.009-0.002,0.014c-0.005,0.029-0.009,0.057-0.014,0.085    c-0.009,0.057-0.02,0.112-0.031,0.167c-0.002,0.01-0.005,0.021-0.007,0.031c-0.013,0.057-0.026,0.113-0.044,0.169l-0.001,0.004    c-0.012,0.038-0.024,0.075-0.035,0.113c-0.009,0.029-0.019,0.059-0.028,0.088c-0.01,0.032-0.019,0.064-0.028,0.096    c-0.01,0.035-0.021,0.07-0.031,0.105c-0.007,0.025-0.013,0.051-0.02,0.077c-0.011,0.041-0.022,0.081-0.032,0.122    c-0.014,0.062-0.027,0.124-0.038,0.187c-0.001,0.004-0.002,0.009-0.003,0.013c-0.001,0.006-0.001,0.011-0.002,0.017    c-0.005,0.033-0.01,0.066-0.012,0.098c-0.001,0.02-0.002,0.04-0.002,0.06c0,0.016-0.001,0.033-0.001,0.049    c0.001,0.023,0.002,0.045,0.004,0.068c0.001,0.013,0.002,0.025,0.003,0.038c0.003,0.023,0.006,0.046,0.009,0.069    c0.002,0.012,0.004,0.024,0.006,0.036c0.004,0.022,0.008,0.044,0.013,0.066c0.003,0.014,0.007,0.028,0.01,0.042    c0.005,0.019,0.01,0.039,0.015,0.058c0.006,0.023,0.013,0.045,0.02,0.068c0.003,0.011,0.006,0.022,0.01,0.033    c0.011,0.035,0.022,0.071,0.033,0.107l0,0c0,0,0,0,0,0.001c0.005,0.016,0.01,0.033,0.015,0.049    c0.007,0.024,0.015,0.047,0.022,0.071l0,0c0,0,0,0,0,0c0.034,0.116,0.068,0.239,0.095,0.365c0.002,0.009,0.003,0.018,0.005,0.027    c0.007,0.033,0.014,0.066,0.019,0.099c0.006,0.033,0.01,0.067,0.015,0.1c0.001,0.009,0.003,0.018,0.004,0.027    c0.016,0.127,0.021,0.253,0.008,0.374c-0.005,0.047-0.008,0.096-0.011,0.145c-0.001,0.013-0.001,0.026-0.002,0.039    c-0.002,0.043-0.004,0.087-0.005,0.13c-0.002,0.046-0.003,0.092-0.005,0.138c-0.001,0.012-0.001,0.023-0.002,0.035    c-0.002,0.033-0.004,0.065-0.006,0.097c-0.001,0.016-0.003,0.031-0.004,0.047c-0.003,0.03-0.006,0.059-0.01,0.088    c-0.002,0.015-0.004,0.029-0.006,0.044c-0.006,0.04-0.014,0.079-0.024,0.117c0,0.002-0.001,0.004-0.001,0.006    c-0.026,0.098-0.048,0.192-0.068,0.283c-0.001,0.003-0.001,0.006-0.002,0.009c-0.019,0.089-0.035,0.174-0.048,0.257    c-0.001,0.003-0.001,0.007-0.002,0.01c-0.013,0.082-0.023,0.16-0.03,0.236c0,0.005-0.001,0.011-0.001,0.016    c-0.007,0.076-0.011,0.149-0.012,0.22c0,0.003,0,0.006,0,0.009v0c0,0.04,0.004,0.079,0.01,0.118    c0.002,0.014,0.005,0.027,0.008,0.04c0.005,0.024,0.011,0.048,0.018,0.071c0.005,0.015,0.01,0.03,0.015,0.045    c0.008,0.021,0.016,0.042,0.025,0.062c0.006,0.015,0.013,0.029,0.02,0.044c0.01,0.021,0.021,0.042,0.033,0.063    c0.007,0.012,0.013,0.025,0.02,0.037c0.019,0.032,0.038,0.063,0.059,0.094c0.004,0.007,0.009,0.013,0.013,0.02    c0.018,0.026,0.036,0.053,0.054,0.079c0.014,0.02,0.029,0.04,0.043,0.06c0.013,0.018,0.026,0.036,0.038,0.054    c0.023,0.032,0.046,0.064,0.067,0.095c0.031,0.046,0.062,0.09,0.093,0.136c0.095,0.139,0.19,0.279,0.285,0.416l0.786-0.069    c0.073-0.006,0.146,0.02,0.198,0.071l1.084,1.073c0.048,0.01,0.092,0.019,0.125,0.023c0.186,0.021,0.255-0.001,0.387-0.144    c0.109-0.118,0.174-0.269,0.242-0.415c0.114-0.243,0.257-0.418,0.43-0.619c0.255-0.296,0.449-0.514,0.858-0.608    c0.561-0.13,1.007,0.038,1.364,0.471c0.113,0.137,0.185,0.321,0.31,0.445c0.16,0.162,0.245,0.073,0.399-0.081    c0.156-0.154,0.247-0.255,0.48-0.193c0.174,0.046,0.421,0.156,0.509,0.321c0.089,0.167,0.049,0.252,0.302,0.228    c0.506-0.048,1.03-0.72,0.853-1.244c-0.026-0.074-0.09-0.1-0.13-0.159c-0.044-0.067-0.085-0.175-0.121-0.25    c-0.062-0.131-0.133-0.25-0.196-0.379c-0.064-0.13-0.102-0.243-0.229-0.318c-0.136-0.079-0.313-0.147-0.463-0.225    c-0.252-0.13-0.685-0.269-0.733-0.612c-0.027-0.203,0.134-0.162,0.242-0.049c0.122,0.13,0.196,0.302,0.334,0.42    c0.261,0.222,0.632,0.063,0.878,0.35c0.215,0.252,0.255,0.613,0.644,0.701c0.171,0.037,0.356-0.021,0.515-0.068    c0.09-0.028,0.348-0.161,0.438-0.086c0.084,0.07,0.018,0.341,0.009,0.436c-0.021,0.218-0.033,0.382,0.08,0.566    c0.086,0.14,0.148,0.334,0.257,0.449c0.131,0.142,0.299,0.076,0.475,0.013c0.231-0.084,0.874-0.111,0.865-0.447    c-0.005-0.147-0.155-0.304-0.259-0.403c-0.084-0.08-0.301-0.184-0.324-0.305c-0.031-0.149,0.17-0.201,0.133-0.371    c-0.028-0.125-0.183-0.226-0.291-0.29c-0.15-0.089-0.315-0.122-0.434-0.26c-0.062-0.073-0.229-0.35-0.048-0.35    c0.137-0.001,0.161,0.284,0.257,0.366c0.106,0.09,0.263,0.071,0.385,0.112c0.188,0.066,0.353,0.561,0.565,0.488    c0.105-0.037,0.175-0.355,0.193-0.451c0.037-0.204,0.067-0.35,0.188-0.533c0.175-0.261,0.587-0.387,0.504-0.758    c-0.032-0.148-0.124-0.278-0.157-0.433c-0.035-0.16-0.086-0.328-0.117-0.497c-0.01-0.057-0.135-0.598-0.049-0.643    c0.096-0.05,0.258,0.317,0.287,0.393c0.117,0.309,0.241,0.674,0.244,1.006c0.003,0.277-0.156,0.481-0.176,0.74    c-0.024,0.278,0.031,0.542,0.031,0.816c0,0.273-0.005,0.474,0.125,0.712c0.192,0.349,0.297,0.737,0.812,0.644    c0.211-0.038,0.228-0.231,0.206-0.438c-0.013-0.131-0.093-0.369-0.004-0.496c0.081-0.113,0.299-0.116,0.426-0.112    c0.211,0.006,0.425,0.112,0.63,0.036c0.188-0.068,0.333-0.241,0.512-0.333c0.35-0.18,0.859-0.296,1.183-0.041    c0.288,0.227,0.549,0.452,0.842,0.664c0.12,0.088,0.234,0.196,0.387,0.222c0.194,0.035,0.327,0.032,0.515,0.133    c0.259,0.138,0.477,0.349,0.739,0.479c0.227,0.112,0.703,0.137,0.57-0.246c-0.102-0.287-0.467-0.27-0.681-0.377    c-0.25-0.125-0.451-0.316-0.725-0.376c-0.27-0.059-0.618-0.203-0.752-0.485c-0.057-0.117-0.023-0.241-0.101-0.367    c-0.066-0.104-0.188-0.218-0.191-0.352c0.36-0.028,0.302,0.361,0.448,0.594c0.196,0.312,0.414,0.022,0.631-0.108    c0.266-0.161,0.46-0.332,0.063-0.515c-0.272-0.125-0.704-0.198-0.855-0.473c-0.173-0.313-0.115-0.691-0.278-0.997    c-0.06-0.112-0.134-0.263-0.285-0.242c-0.144,0.021-0.203,0.215-0.29,0.303c-0.084,0.085-0.232,0.198-0.335,0.117    c-0.077-0.06-0.101-0.364-0.057-0.452c0.053-0.1,0.24-0.1,0.276-0.207c0.053-0.158-0.25-0.304-0.331-0.411    c-0.124-0.163-0.17-0.362-0.198-0.56c-0.036-0.257-0.108-0.617-0.048-0.882c0.041-0.179,0.147-0.108,0.246-0.22    c0.085-0.096,0.035-0.233-0.005-0.33c-0.022-0.057-0.053-0.127-0.093-0.178c-0.059-0.077-0.175-0.183-0.245-0.254    c-0.058-0.059-0.138-0.077-0.204-0.129c0.286-0.234,0.419,0.372,0.639,0.24c0.281-0.171-0.126-0.529-0.251-0.627    c-0.05-0.04-0.105-0.071-0.14-0.127c-0.053-0.09-0.001-0.113-0.016-0.193c-0.015-0.09,0.003-0.076-0.064-0.142    c-0.029-0.028-0.181-0.023-0.139-0.1c0.046-0.087,0.308,0.052,0.34-0.14c0.018-0.104-0.147-0.116-0.228-0.199    c-0.149-0.153-0.087-0.211-0.004-0.351c0.067-0.116,0.112-0.211,0.004-0.31c-0.109-0.099-0.247-0.039-0.227-0.252    c0.014-0.147,0.134-0.272,0.261-0.335c0.171-0.084,0.279-0.031,0.302-0.241c0.018-0.162-0.042-0.305-0.196-0.355    c-0.132-0.041-0.362-0.035-0.427,0.094c-0.049,0.093-0.013,0.352-0.229,0.256c-0.251-0.11,0.331-0.413,0.274-0.627    c-0.032-0.126-0.194-0.168-0.225-0.307c-0.031-0.133-0.009-0.316-0.017-0.451c-0.019-0.315-0.251-0.424-0.358-0.703    c-0.138-0.361-0.237-0.731-0.048-1.083c0.148-0.273,0.331-0.483,0.372-0.789c0.024-0.175-0.041-0.697,0.143-0.786    c0.426,0.542-0.106,1.011-0.186,1.53c-0.029,0.184,0.041,0.225,0.154,0.352c0.101,0.112,0.162,0.205-0.026,0.257    c-0.156,0.044-0.238-0.004-0.297,0.188c-0.037,0.126,0.006,0.265,0.074,0.375c0.045,0.076,0.152,0.26,0.241,0.287    c0.175,0.053,0.135-0.165,0.283-0.14c-0.002,0.278,0.198-0.012,0.244-0.05c0.16-0.133,0.203,0.042,0.157,0.189    c-0.015,0.052-0.07,0.094-0.076,0.148c-0.01,0.077,0.048,0.134,0.032,0.21c-0.021,0.106-0.192,0.161-0.178,0.274    c0.017,0.13,0.212,0.103,0.242,0.241c0.023,0.106-0.073,0.301,0.142,0.238c0.054-0.016,0.029-0.093,0.116-0.11    c0.086-0.015,0.122,0.028,0.177,0.084c0.095,0.099,0.14,0.264,0.212,0.382c0.074,0.119,0.164,0.215,0.236,0.327    c0.047,0.077,0.176,0.323,0.244,0.14c0.042-0.114-0.085-0.259-0.016-0.389c0.072-0.14,0.251-0.21,0.322-0.045    c0.068,0.157-0.065,0.305-0.113,0.434c-0.046,0.122-0.062,0.305-0.064,0.434c-0.002,0.161,0.068,0.263,0.125,0.403    c0.053,0.129,0.068,0.268,0.129,0.39c0.124,0.251,0.345,0.4,0.483,0.627c0.056,0.09,0.083,0.305,0.197,0.158    c0.073-0.094,0.047-0.309,0.108-0.422c0.064-0.124,0.186-0.194,0.215-0.335c0.037-0.178-0.075-0.224-0.158-0.341    c-0.242-0.34,0.122-0.439,0.35-0.609c0.234-0.173,0.193-0.408,0.341-0.626c0.1-0.147,0.194-0.18,0.206-0.372    c0.01-0.167,0.019-0.331,0.032-0.496c0.024-0.314,0.018-0.645,0.353-0.759c0.244-0.084,0.621-0.165,0.709-0.435    C72.436,19.189,72.448,18.935,72.308,18.931z"/><path d="M60.332,34.102c-0.028-0.032-0.064-0.04-0.102-0.06c-0.091-0.051-0.159-0.135-0.231-0.209    c-0.067-0.07-0.084-0.107-0.173-0.044c-0.029,0.021-0.067,0.041-0.082,0.077c-0.012,0.028,0.006,0.09-0.022,0.113    c-0.047,0.039-0.038-0.057-0.043-0.093c-0.009-0.066-0.013-0.133-0.03-0.196c-0.12-0.426-0.591-0.494-0.937-0.639    c-0.085-0.035-0.149-0.089-0.224-0.142c-0.074-0.05-0.165-0.09-0.231-0.149c-0.045-0.041-0.083-0.104-0.113-0.156    c-0.023-0.037-0.058-0.145-0.096-0.166c-0.076-0.041-0.11,0.091-0.134,0.137c-0.032,0.061-0.08,0.09-0.133,0.13    c-0.076,0.055-0.121,0.095-0.135,0.189c-0.015,0.1-0.037,0.201-0.053,0.303c-0.017,0.115-0.039,0.224-0.067,0.335    c-0.026,0.097-0.066,0.187-0.093,0.282c-0.026,0.093-0.014,0.13,0.056,0.202c0.063,0.065,0.146,0.102,0.209,0.162    c0.127,0.122,0.114,0.327,0.256,0.436c0.09,0.069,0.17,0.077,0.277,0.098c0.141,0.027,0.274,0.055,0.412,0.095    c0.125,0.036,0.24,0.095,0.363,0.13c0.089,0.023,0.185,0.015,0.277,0.015c0.196,0,0.389,0.028,0.584,0.012    c0.071-0.006,0.146-0.015,0.211-0.04c0.076-0.028,0.09-0.049,0.112-0.122c0.046-0.161,0.211-0.11,0.305-0.22    c0.095-0.111-0.014-0.256-0.08-0.352C60.385,34.192,60.364,34.139,60.332,34.102z"/><path d="M56.964,32.939c-0.054-0.017-0.1-0.001-0.148-0.036c-0.046-0.033-0.071-0.084-0.113-0.121    c-0.032-0.028-0.05-0.037-0.094-0.036c-0.063,0.002-0.081,0.032-0.107,0.082c-0.03,0.059-0.083,0.031-0.133,0.054    c-0.062,0.03,0.021,0.098,0.056,0.113c0.038,0.015,0.084,0.01,0.119,0.036c0.036,0.026,0.041,0.077,0.082,0.098    c0.044,0.022,0.086,0.059,0.135,0.069c0.07,0.015,0.07-0.058,0.121-0.085c0.04-0.022,0.116-0.009,0.144-0.046    C57.063,33.02,57.01,32.952,56.964,32.939z"/><path d="M56.477,32.59c0.022,0.005,0.052,0.013,0.075,0.003c0.029-0.014,0.048-0.058,0.064-0.082    c0.041-0.058,0.086-0.103,0.133-0.153c0.041-0.044,0.08-0.087,0.135-0.112c0.046-0.022,0.099-0.037,0.135-0.077    c0.031-0.032,0.014-0.072-0.027-0.089c-0.053-0.022-0.103-0.022-0.148-0.059c-0.056-0.045-0.099-0.083-0.125-0.151    c-0.018-0.042-0.028-0.089-0.049-0.13c-0.031-0.062-0.133-0.045-0.156,0.015c-0.015,0.039,0.001,0.062-0.035,0.095    c-0.04,0.035-0.086,0.06-0.126,0.097c-0.022,0.019-0.041,0.037-0.071,0.046c-0.034,0.009-0.086-0.003-0.111,0.03    c-0.03,0.041,0.001,0.071,0.032,0.091c0.04,0.024,0.068,0.06,0.097,0.097c0.026,0.032,0.043,0.068,0.027,0.108    c-0.022,0.06-0.067,0.033-0.114,0.049c-0.039,0.012-0.067,0.052-0.036,0.085c0.04,0.041,0.12,0.042,0.17,0.067    C56.392,32.541,56.427,32.58,56.477,32.59z"/><path d="M74.857,22.007c-0.265-0.162-0.34-0.433-0.485-0.694c-0.045-0.081-0.13-0.175-0.238-0.131    c-0.091,0.036-0.07,0.147-0.126,0.218c-0.085,0.106-0.176,0.104-0.186,0.255c-0.007,0.115,0.016,0.215,0.032,0.322    c0.014,0.094-0.013,0.193,0.016,0.285c0.032,0.097,0.137,0.149,0.166,0.241c0.034,0.108-0.072,0.183-0.111,0.268    c-0.113,0.251,0.186,0.259,0.196,0.473c0.006,0.118-0.059,0.121-0.095,0.215c-0.041,0.105,0.008,0.195,0.075,0.277    c0.102,0.122,0.241,0.334,0.408,0.357c0.057,0.008,0.122,0.001,0.18-0.003c0.016-0.095-0.108-0.16-0.167-0.215    c-0.072-0.068-0.131-0.148-0.183-0.233c-0.146-0.238,0.104-0.232,0.156-0.42c0.031-0.109-0.008-0.174-0.027-0.276    c-0.022-0.109-0.008-0.241-0.013-0.349c-0.012-0.225,0.128-0.32,0.34-0.33c0.064-0.004,0.256,0.048,0.301-0.003    C75.192,22.158,74.92,22.046,74.857,22.007z"/></g><g><path d="M52.403,32.225c-0.063-0.011-0.122-0.046-0.161-0.102l-0.083-0.119c-0.127-0.183-0.254-0.368-0.38-0.555    c-0.028-0.041-0.058-0.083-0.088-0.124c-0.19-0.264-0.422-0.587-0.422-1.039v-0.012c0.005-0.343,0.063-0.72,0.179-1.156    c0.031-0.12,0.037-0.291,0.043-0.458c0.004-0.115,0.008-0.234,0.021-0.353c0.024-0.234-0.052-0.535-0.129-0.799    c-0.011-0.038-0.023-0.077-0.035-0.114l-0.003-0.01c-0.09-0.29-0.192-0.619-0.119-1.032c0.052-0.299,0.14-0.577,0.225-0.846    l0.007-0.023c0.036-0.115,0.058-0.251,0.081-0.395c0.016-0.099,0.032-0.201,0.055-0.306c0.019-0.086,0.046-0.198,0.09-0.315    c0.075-0.203,0.185-0.366,0.281-0.51c0.026-0.038,0.051-0.076,0.076-0.116c0.077-0.121,0.14-0.278,0.206-0.445    c0.04-0.1,0.081-0.204,0.129-0.308c0.229-0.495,0.519-0.869,0.883-1.279c0.423-0.477,0.787-1.015,1.08-1.598    c0,0,0.073-0.145,0.095-0.189l0.106-0.214c0.013-0.027,0.28-0.591,0.28-0.591c-0.101-0.206-0.459-0.272-0.649-0.352l-0.079,0.093    c-0.069,0.081-0.108,0.01-0.275,0.013l-0.158-0.001c-0.006,0.013-0.013,0.025-0.023,0.036c-0.082,0.085-0.269,0.013-0.341-0.054    c-0.083-0.079-0.099-0.187-0.104-0.296c-0.02-0.022-0.04-0.045-0.057-0.068c-0.019-0.024-0.038-0.05-0.058-0.076    c-0.056-0.074-0.1-0.133-0.147-0.175c-0.012-0.011-0.033-0.032-0.183-0.189c-0.091,0.009-0.139,0.069-0.204,0.141    c-0.108,0.12-0.229,0.233-0.33,0.362c-0.084,0.104-0.193,0.242-0.225,0.376c-0.028,0.116-0.012,0.255-0.012,0.376    c0,0.311-0.066,0.569-0.192,0.855c-0.144,0.324-0.303,0.63-0.484,0.937c-0.238,0.403-0.448,0.823-0.694,1.223    c-0.116,0.187-0.239,0.424-0.429,0.546c-0.108,0.071-0.185,0.093-0.266,0.207c-0.092,0.129-0.121,0.269-0.067,0.421    c0.086,0.242,0.272,0.394,0.255,0.659c-0.018,0.287-0.236,0.576-0.322,0.85c-0.113,0.364-0.186,0.734-0.322,1.093    c-0.143,0.373-0.302,0.766-0.523,1.102c-0.231,0.349-0.493,0.676-0.703,1.033c-0.026,0.044-0.045,0.098-0.094,0.118    c-0.039,0.017-0.088-0.006-0.126,0.013c-0.117,0.059-0.097,0.201-0.164,0.29c-0.057,0.075-0.236,0.082-0.267,0.169    c-0.031,0.087,0.113,0.08,0.116,0.183c0.004,0.089-0.138,0.259-0.181,0.335c-0.084,0.141-0.186,0.269-0.255,0.417    c-0.079,0.164-0.126,0.343-0.21,0.504c-0.127,0.247-0.249,0.501-0.396,0.738c-0.201,0.322-0.442,0.652-0.587,1.003    c-0.04,0.095-0.054,0.189-0.086,0.287c-0.07,0.209-0.169,0.38-0.277,0.57c-0.14,0.247-0.258,0.507-0.402,0.752    c-0.08,0.135-0.131,0.288-0.221,0.419c-0.097,0.139-0.22,0.229-0.305,0.384c-0.072,0.134-0.116,0.283-0.182,0.419    c-0.12,0.252-0.279,0.485-0.413,0.729c-0.045,0.085-0.089,0.201-0.156,0.269c-0.066,0.067-0.126,0.054-0.223,0.054    c-0.051,0-0.241-0.028-0.215,0.075c0.014,0.053,0.161,0.059,0.197,0.129c0.08,0.154-0.14,0.178-0.218,0.268    c-0.04,0.046-0.05,0.098-0.077,0.151c-0.036,0.07-0.098,0.095-0.135,0.151c-0.093,0.141,0.078,0.215,0.062,0.344    c-0.009,0.072-0.073,0.109-0.142,0.063c-0.036-0.023-0.057-0.117-0.063-0.158c-0.201-0.036-0.209,0.322-0.308,0.44    c-0.059,0.072-0.125,0.115-0.102,0.213c0.022,0.094,0.146,0.121,0.046,0.211c-0.045,0.041-0.222,0.036-0.184,0.143    c0.019,0.053,0.231,0.063,0.098,0.129c-0.063,0.03-0.237-0.077-0.186,0.054c0.032,0.08,0.207,0.06,0.21,0.157    c0.003,0.144-0.273-0.006-0.313-0.039c-0.005,0.048-0.032,0.136-0.004,0.181c0.036,0.059,0.14,0.032,0.118,0.126    c-0.067,0.013-0.353-0.163-0.308,0.032c0.051,0.008,0.157,0.042,0.149,0.11c-0.013,0.098-0.135,0.013-0.193,0.022    c-0.069,0.01-0.14,0.086-0.129,0.161c0.014,0.09,0.106,0.079,0.158,0.13c0.059,0.2-0.507-0.021-0.436,0.233    c0.063,0.039,0.255,0.023,0.127,0.13c-0.021,0.019-0.095,0.021-0.129,0.043c-0.049,0.035-0.066,0.075-0.099,0.125    c-0.084,0.122-0.173,0.246-0.211,0.391c-0.012,0.044-0.048,0.145-0.039,0.189c0.015,0.071,0.095,0.09,0.126,0.151    c0.036,0.071,0.003,0.183-0.035,0.241c-0.041,0.066-0.13,0.138-0.202,0.073c-0.055-0.049-0.021-0.154-0.129-0.16    c0.006,0.188-0.091,0.337-0.182,0.482c-0.133,0.211,0.063,0.255,0.156,0.389c0.146,0.207-0.018,0.256-0.148,0.381    c-0.222,0.214-0.238,0.458-0.224,0.743c0.005,0.125-0.017,0.22-0.057,0.332c-0.041,0.12-0.028,0.136,0.053,0.218    c0.053,0.052,0.125,0.133,0.143,0.201c0.037,0.141-0.069,0.118-0.151,0.161c-0.105,0.055-0.092,0.131,0.022,0.151    c0.084,0.014,0.256-0.008,0.303,0.093c0.055,0.119-0.134,0.126-0.205,0.143c-0.153,0.034-0.151,0.066-0.184,0.193    c-0.03,0.112-0.149,0.284-0.118,0.408c0.04,0.16,0.449,0.023,0.385,0.255c-0.063,0.018-0.599,0.026-0.438,0.174    c0.068,0.063,0.184-0.019,0.153,0.121c-0.021,0.086-0.13,0.129-0.175,0.179c-0.176,0.197,0.29,0.267,0.397,0.346    c0.122,0.093,0.032,0.108-0.075,0.129c-0.109,0.021-0.336,0.03-0.394,0.129c-0.051,0.087-0.046,0.313-0.057,0.416    c-0.055,0.498-0.233,0.986-0.257,1.49c-0.01,0.21-0.028,0.416-0.064,0.622c-0.027,0.158-0.089,0.305-0.116,0.463    c-0.031,0.18-0.08,0.349-0.121,0.529c-0.018,0.076-0.094,0.269-0.054,0.35c0.057,0.113,0.228,0.053,0.321,0.035    c0.088-0.017,0.229,0.002,0.165,0.138c-0.049,0.101-0.192,0.063-0.152,0.225c0.019,0.077,0.096,0.178,0.131,0.257    c0.032,0.071,0.067,0.133,0.126,0.186c0.082,0.072,0.183,0.135,0.291,0.146c0.148,0.015,0.183-0.024,0.265-0.126    c0.064-0.081,0.207-0.179,0.282-0.057c0.059,0.099,0,0.174,0.171,0.151c0.305-0.042-0.199-0.399,0.075-0.472    c0.249-0.065,0.111,0.498,0.456,0.205c0.235-0.202,0.545-0.429,0.641-0.738c0.036-0.117-0.048-0.178-0.067-0.282    c-0.03-0.149,0.065-0.191,0.179-0.242c0.167-0.073,0.315-0.185,0.487-0.251c0.169-0.066,0.355-0.091,0.537-0.108    c0.056-0.005,0.112-0.015,0.17-0.01c0.098,0.01,0.091-0.005,0.098,0.098c0.005,0.099-0.046,0.215,0.077,0.264    c0.126,0.051,0.248-0.1,0.362-0.131c0.17-0.046,0.336-0.079,0.507-0.079c0.157,0,0.295-0.067,0.443-0.112    c0.138-0.043,0.244-0.091,0.357-0.183c0.127-0.104,0.201-0.216,0.26-0.372c0.075-0.195,0.167-0.385,0.247-0.579    c0.154-0.377,0.178-0.801,0.236-1.203c0.004-0.022-0.008-0.053,0-0.075c0.007-0.019,0.042-0.041,0.042-0.042    c0.027-0.073,0.04-0.178,0.054-0.269c0.025-0.166,0.059-0.328,0.075-0.494c0.028-0.31-0.106-0.533-0.337-0.735    c-0.079-0.071-0.203-0.138-0.108-0.237c0.091-0.094,0.276-0.031,0.356-0.111c-0.068-0.048-0.429-0.109-0.317-0.287    c0.09-0.14,0.424,0.031,0.353-0.269c-0.034-0.148-0.162-0.234-0.173-0.408c-0.005-0.102,0.008-0.144,0.064-0.223    c0.108-0.147,0.04-0.326,0.044-0.507c0.003-0.169,0.087-0.317,0.149-0.472c0.146-0.36,0.418-0.639,0.634-0.958    c0.241-0.36,0.462-0.737,0.716-1.087c0.314-0.434,0.675-0.838,0.99-1.267c0.142-0.193,0.261-0.39,0.381-0.595    c0.209-0.357,0.409-0.707,0.704-1c0.126-0.125,0.232-0.26,0.345-0.398c0.074-0.089,0.242-0.198,0.244-0.318    c0.001-0.104-0.098-0.243-0.131-0.341c-0.044-0.125-0.072-0.247-0.126-0.37c-0.048-0.107-0.094-0.22-0.075-0.341    c0.052-0.334,0.449-0.51,0.641-0.751c0.085-0.108,0.144-0.224,0.196-0.353c0.064-0.16,0.102-0.321,0.222-0.451    c0.153-0.164,0.345-0.287,0.519-0.426c0.131-0.103,0.278-0.185,0.377-0.327c0.106-0.148,0.074-0.341,0.074-0.516    C52.404,32.556,52.416,32.386,52.403,32.225z"/><path d="M54.797,18.335c-0.058-0.027-0.135-0.05-0.175,0l-0.216,0.254c0.169,0.046,0.346,0.146,0.487,0.248    c0.025,0.02,0.045,0.041,0.066,0.063l0.093-0.213C55.062,18.565,54.948,18.406,54.797,18.335z"/><path d="M54.312,33.174l-1.027-1.016L52.804,32.2c-0.018,0.174-0.153,0.335-0.164,0.54c-0.009,0.182,0.016,0.367,0,0.549    c-0.017,0.188-0.107,0.334-0.206,0.491c-0.17,0.273-0.346,0.454-0.636,0.617c-0.143,0.08-0.196,0.114-0.237,0.273    c-0.032,0.129-0.109,0.216-0.146,0.337c-0.093,0.306,0.48,0.514,0.683,0.605c0.084,0.039,0.174,0.067,0.249,0.124    c0.045,0.033,0.083,0.113,0.131,0.138c0.044,0.021,0.088,0.03,0.132,0.03c0.154,0,0.305-0.108,0.4-0.218    c0.095-0.11,0.224-0.224,0.306-0.34c0.094-0.134,0.064-0.325,0.097-0.484c0.064-0.313,0.299-0.595,0.519-0.833    c0.145-0.157,0.531-0.348,0.56-0.582c0.01-0.079-0.073-0.195-0.141-0.311L54.312,33.174z"/><path d="M51.417,35.854c0.044,0.134-0.135,0.201-0.206,0.294c-0.042,0.055-0.074,0.191-0.17,0.185    c-0.082-0.005-0.094-0.129-0.114-0.193c-0.044-0.135-0.037-0.384,0.109-0.461C51.156,35.615,51.375,35.727,51.417,35.854z"/><path d="M50.976,37.009c0.005,0.026,0.008,0.053,0.008,0.081c0,0.095-0.027,0.203-0.048,0.285    c-0.066,0.265-0.265,0.439-0.409,0.66c-0.414,0.639-0.738,1.334-1.17,1.962c-0.237,0.345-0.568,0.619-0.81,0.963    c-0.133,0.188-0.364,0.597-0.626,0.574c-0.006-0.121-0.005-0.233,0.037-0.341c0.055-0.137,0.142-0.255,0.189-0.394    c0.101-0.299,0.312-0.563,0.501-0.819c0.192-0.26,0.399-0.509,0.589-0.771c0.218-0.299,0.422-0.61,0.641-0.91    c0.167-0.228,0.294-0.469,0.416-0.72c0.032-0.066,0.068-0.125,0.108-0.179c0.041-0.053,0.088-0.1,0.146-0.143    C50.619,37.208,50.926,36.769,50.976,37.009z"/><path d="M47.478,41.641c0,0,0,0,0-0.001c0.009-0.036,0.019-0.089,0.042-0.098c0.057-0.023,0.088,0.171,0.079,0.212    c-0.031,0.134-0.193,0.134-0.256,0.236c-0.034,0.053-0.004,0.148-0.044,0.192c-0.029,0.031-0.119,0.026-0.14-0.013    c-0.021-0.037-0.003-0.134-0.003-0.178c0-0.072,0.013-0.086,0.069-0.133c0.047-0.04,0.093-0.076,0.14-0.112    C47.4,41.72,47.457,41.682,47.478,41.641z"/><path d="M40.953,52.184c0.004,0.08,0.022,0.194,0.005,0.287c-0.006,0.036-0.019,0.068-0.039,0.095    c-0.066,0.086-0.211,0.148-0.308,0.189c-0.166,0.07-0.325,0.133-0.477,0.234c-0.169,0.112-0.303,0.255-0.47,0.366    c-0.094,0.063-0.163,0.119-0.243,0.198c-0.058,0.056-0.143,0.061-0.218,0.027c-0.141-0.062-0.229-0.199-0.341-0.299    c-0.064-0.058-0.094-0.107-0.088-0.194c0.006-0.067,0.023-0.154,0.055-0.215c0.033-0.062,0.099-0.097,0.155-0.14    c0.08-0.062,0.154-0.128,0.236-0.186c0.102-0.071,0.155-0.166,0.219-0.268c0.064-0.103,0.098-0.225,0.179-0.316    c0.073-0.082,0.169-0.146,0.254-0.218c0.076-0.064,0.166-0.14,0.263-0.171c0.13-0.042,0.302,0.049,0.398,0.129    C40.692,51.834,40.942,51.951,40.953,52.184z"/><path d="M37.563,50.679c0.058,0.045,0.039,0.156-0.019,0.187c-0.055,0.029-0.134,0.042-0.192,0.055    c-0.074,0.016-0.115-0.001-0.164-0.057c-0.061-0.067-0.09-0.138-0.161-0.197c-0.073-0.061-0.122-0.102-0.124-0.201    c0-0.062,0.005-0.112,0.075-0.135c0.077-0.024,0.176-0.012,0.242,0.037c0.045,0.035,0.035,0.061,0.051,0.106    c0.021,0.051,0.07,0.071,0.111,0.102c0.031,0.023,0.057,0.05,0.09,0.068C37.498,50.66,37.542,50.663,37.563,50.679z"/><path d="M37.053,51.038l0.001,0.001c-0.014,0.033-0.046,0.063-0.061,0.097c-0.013,0.035-0.018,0.072-0.032,0.106    c-0.023,0.054-0.054,0.129-0.122,0.115c-0.064-0.014-0.081-0.088-0.124-0.129c-0.048-0.045-0.162-0.088-0.182-0.157    c-0.014-0.055,0.066-0.111,0.09-0.153c0.023-0.04,0.018-0.081,0.037-0.117c0.015-0.031,0.054-0.067,0.08-0.088    c0.048-0.039,0.1-0.05,0.13,0.006c0.015,0.029,0.01,0.055,0.032,0.081c0.026,0.03,0.064,0.047,0.095,0.069    C37.03,50.889,37.129,51.011,37.053,51.038z"/><path d="M36.844,52.5c0.021,0.093-0.071,0.12-0.126,0.166c-0.019,0.016-0.203,0.263-0.216,0.263    c-0.07-0.038-0.095-0.129-0.142-0.188c-0.057-0.071-0.106-0.146-0.185-0.193c-0.062-0.037-0.16-0.088-0.156-0.169    c0.002-0.075,0.069-0.069,0.116-0.112c0.05-0.049,0.084-0.16,0.152-0.186c0.066-0.026,0.117,0.049,0.154,0.089    c0.058,0.062,0.126,0.116,0.198,0.16C36.701,52.367,36.828,52.421,36.844,52.5z"/></g><g><path d="M60.688,71.56c-0.051,0.048-0.104,0.059-0.114,0.136c-0.009,0.098,0.101,0.165,0.152,0.243    c0.108,0.168,0.114,0.406,0.148,0.602c0.167,0.023,0.241-0.182,0.306-0.297c0.077-0.135,0.147-0.276,0.225-0.411    c0.135-0.231,0.315-0.427,0.422-0.676c0.053-0.121,0.08-0.202,0.015-0.323c-0.062-0.12-0.086-0.255-0.152-0.375    c-0.112-0.204-0.286-0.313-0.485-0.413c-0.117-0.059-0.292-0.233-0.408-0.131c-0.099,0.088-0.166,0.194-0.279,0.276    c-0.084,0.06-0.211,0.121-0.225,0.228c-0.026,0.179,0.201,0.309,0.201,0.498c0,0.062-0.021,0.179,0.05,0.179    c0.074,0.001,0.092-0.08,0.139-0.113c0.106-0.073,0.229,0.003,0.318-0.09c0.011-0.012,0.158-0.237,0.183-0.192    c0.104,0.193-0.139,0.358-0.232,0.493C60.871,71.313,60.796,71.458,60.688,71.56z"/><path d="M61.383,66.519c-0.051,0.013-0.051,0.102-0.061,0.14c-0.019,0.079-0.078,0.121-0.088,0.199    c-0.008,0.054-0.038,0.519,0.106,0.411c0.05-0.037,0.015-0.171,0.093-0.227c0.081-0.057,0.147-0.046,0.165-0.169    c0.013-0.093-0.009-0.135-0.074-0.189C61.478,66.647,61.451,66.501,61.383,66.519z"/><path d="M60.938,63.528c-0.081,0.054-0.149,0.125-0.228,0.182c-0.184,0.133-0.374,0.257-0.55,0.403    c-0.111,0.092-0.247,0.204-0.313,0.334c-0.059,0.115-0.088,0.251-0.139,0.372c-0.111,0.255-0.183,0.536-0.261,0.804    c-0.029,0.102-0.046,0.199,0.062,0.255c0.099,0.052,0.202,0.022,0.292-0.03c0.114-0.066,0.207-0.146,0.333-0.192    c0.164-0.062,0.328-0.116,0.492-0.182c0.128-0.052,0.256-0.109,0.382-0.165c0.087-0.039,0.179-0.067,0.246-0.14    c0.164-0.18,0.02-0.564,0.072-0.788c0.029-0.128,0.087-0.222,0.095-0.357c0.005-0.107,0.012-0.227-0.024-0.326    C61.309,63.459,61.15,63.388,60.938,63.528z"/><path d="M61.186,68.1c0.094-0.007,0.053-0.046,0.081-0.121c0.02-0.055,0.073-0.064,0.095-0.115    c0.027-0.063-0.129-0.21-0.179-0.223c-0.071-0.018-0.131,0.075-0.15,0.136c-0.009,0.032,0.015,0.075-0.009,0.104    c-0.016,0.02-0.057,0.007-0.08,0.029C60.823,68.032,61.104,68.107,61.186,68.1z"/><path d="M60.856,66.328c-0.016-0.076-0.104-0.148-0.152-0.209c-0.046-0.062-0.164-0.286-0.209-0.122    c-0.042,0.155-0.001,0.334-0.042,0.491c-0.039,0.147,0.001,0.21,0.106,0.326c0.052,0.059,0.09,0.119,0.122,0.188    c0.064,0.068,0.088,0.217,0.101,0.297c0.013,0.082,0.067,0.17,0.153,0.094c0.047-0.04,0.031-0.107,0.044-0.159    c0.015-0.059,0.057-0.103,0.08-0.157c0.039-0.091,0.031-0.177-0.027-0.257c-0.049-0.07-0.366-0.241-0.296-0.357    C60.773,66.402,60.881,66.452,60.856,66.328z"/><path d="M60.922,69.299c0.106-0.006,0.115-0.181,0.112-0.276c-0.005-0.109-0.085-0.127-0.153-0.207    c-0.157-0.185-0.103-0.391-0.128-0.612c-0.009-0.077-0.06-0.173-0.14-0.081c-0.052,0.058-0.036,0.209-0.029,0.285    c0.011,0.112,0.016,0.22,0.01,0.333C60.586,68.898,60.702,69.312,60.922,69.299z"/><path d="M65.404,62.542c-0.121-0.081-0.259,0.005-0.364,0.078c-0.097,0.064-0.206,0.106-0.304,0.168    c-0.135,0.084-0.263,0.173-0.404,0.243c-0.066,0.032-0.153,0.071-0.135,0.156c0.02,0.098,0.172,0.198,0.224,0.285    c0.059,0.099,0.108,0.202,0.161,0.307c0.04,0.079,0.059,0.218,0.121,0.283c0.204,0.213,0.289-0.362,0.34-0.465    c0.071-0.145,0.129-0.283,0.238-0.407c0.091-0.102,0.218-0.188,0.268-0.319C65.592,62.756,65.496,62.604,65.404,62.542z"/><path d="M63.704,67.859c0.071,0.067,0.125,0.155,0.184,0.232c0.061,0.079,0.108,0.156,0.214,0.154    c0.125-0.003,0.198-0.094,0.265-0.184c0.141-0.188,0.429-0.207,0.577-0.387c0.128-0.154,0.017-0.371,0.034-0.547    c0.015-0.154,0.073-0.342,0.121-0.491c0.027-0.084,0.084-0.169,0.089-0.257c0.006-0.107-0.097-0.128-0.193-0.121    c-0.146,0.01-0.218,0.205-0.373,0.098c-0.107-0.073-0.184-0.185-0.261-0.291c-0.066-0.09-0.044-0.258,0.063-0.329    c0.062-0.042,0.269-0.037,0.176-0.175c-0.061-0.09-0.233-0.107-0.332-0.111c-0.125-0.004-0.228,0.073-0.284,0.18    c-0.062,0.116-0.009,0.268-0.029,0.394c-0.028,0.192-0.096,0.382-0.135,0.573c-0.013,0.07-0.008,0.145-0.008,0.219    c0,0.033-0.014,0.104,0,0.133c0.014,0.031,0.049,0.035,0.072,0.059c0.069,0.076,0.033,0.098-0.048,0.137    c-0.072,0.035-0.131,0.076-0.194,0.125c-0.053,0.044-0.104,0.102-0.151,0.147c-0.059,0.06-0.073,0.101-0.027,0.186    C63.521,67.711,63.616,67.775,63.704,67.859z"/><path d="M61.871,65.195c-0.03,0.012-0.052,0.014-0.075,0.04c-0.022,0.026-0.022,0.082-0.054,0.098    c-0.063,0.03-0.15-0.079-0.171-0.129c-0.079-0.011-0.095,0.062-0.103,0.122c-0.011,0.107,0.017,0.147,0.107,0.193    c0.149,0.075,0.328,0.102,0.453-0.024c0.106-0.107,0.169-0.189,0.312-0.261c0.172-0.088,0.34-0.188,0.525-0.249    c0.272-0.092,0.555-0.148,0.828-0.238c0.222-0.072,0.609,0.049,0.747-0.204c0.046-0.087,0.012-0.125-0.05-0.186    c-0.054-0.054-0.087-0.116-0.134-0.174c-0.083-0.104-0.268-0.35-0.42-0.309c-0.074,0.019-0.098,0.098-0.16,0.122    c-0.106,0.043-0.074-0.045-0.048-0.104c0.026-0.061,0.042-0.134,0.08-0.186c0.044-0.056,0.14-0.06,0.175-0.114    c0.058-0.085-0.061-0.39-0.178-0.353c-0.056,0.018-0.106,0.134-0.144,0.178c-0.088,0.098-0.314,0.254-0.446,0.138    c-0.042-0.035-0.02-0.094-0.085-0.106c-0.117-0.021-0.103,0.125-0.106,0.199c-0.151,0.035-0.109-0.301-0.281-0.175    c-0.066,0.049-0.062,0.137-0.111,0.194c-0.049,0.059-0.129,0.091-0.186,0.135c-0.088,0.064-0.122,0.143-0.153,0.242    c-0.028,0.089-0.05,0.118-0.138,0.07c-0.117-0.066-0.224-0.222-0.379-0.12c-0.069,0.047-0.104,0.149-0.103,0.23    c0,0.059,0.026,0.214,0.062,0.256c0.047,0.057,0.116,0.013,0.187,0.023c0.106,0.015,0.129,0.102,0.138,0.198    c0.009,0.107,0,0.221,0,0.329c0,0.028,0.014,0.108-0.003,0.133C61.933,65.204,61.906,65.182,61.871,65.195z"/><path d="M64.1,61.599c-0.157-0.106-0.462-0.036-0.613,0.061c-0.178,0.113-0.375,0.217-0.542,0.35    c-0.168,0.133-0.308,0.289-0.437,0.459c-0.118,0.155-0.22,0.452-0.146,0.649c0.07,0.182,0.538,0.027,0.702,0.016    c0.182-0.013,0.373,0.024,0.552-0.014c0.228-0.049,0.279-0.302,0.412-0.466c0.16-0.197,0.353-0.286,0.378-0.564    c0.009-0.104-0.009-0.17-0.071-0.247C64.268,61.762,64.189,61.659,64.1,61.599z"/><path d="M63.546,66.976c0.041-0.076,0.046-0.194,0.055-0.282c0.012-0.123,0.057-0.232,0.079-0.348    c0.015-0.08-0.026-0.175-0.061-0.242c-0.093-0.17-0.321-0.155-0.454-0.033c-0.101,0.09-0.067,0.154,0.017,0.234    c0.059,0.057,0.153,0.101,0.05,0.144c-0.087,0.036-0.193,0.001-0.273-0.031c-0.103-0.042-0.167-0.064-0.196-0.175    c-0.022-0.09,0.005-0.108,0.074-0.147c0.058-0.032,0.121-0.086,0.042-0.161c-0.058-0.054-0.15-0.018-0.206-0.088    c-0.048-0.062-0.057-0.2-0.15-0.21c-0.106-0.012-0.099,0.13-0.08,0.201c0.035,0.13,0.244,0.198,0.224,0.331    c-0.014,0.087-0.085,0.077-0.155,0.116c-0.083,0.047-0.071,0.086-0.08,0.175c-0.013,0.136-0.197,0.265-0.144,0.393    c0.067,0.163,0.238,0.296,0.328,0.453c0.084,0.146,0.037,0.358,0.17,0.466c0.066,0.053,0.144,0.106,0.2,0.032    c0.069-0.091,0.109-0.256,0.157-0.364C63.23,67.244,63.448,67.16,63.546,66.976z"/><path d="M62.593,69.508c0.126,0.005,0.226-0.119,0.322-0.191c0.112-0.084,0.243-0.129,0.35-0.22    c0.092-0.078,0.159-0.278,0.087-0.394c-0.045-0.072-0.198-0.115-0.271-0.154c-0.085-0.045-0.167-0.086-0.257-0.124    c-0.164-0.068-0.331-0.125-0.488-0.206c-0.199-0.102-0.319-0.126-0.504,0.022c-0.057,0.046-0.108,0.097-0.171,0.138    c-0.071,0.046-0.189,0.106-0.201,0.202c-0.021,0.155,0.218,0.202,0.319,0.254c0.139,0.071,0.266,0.184,0.381,0.289    C62.307,69.258,62.379,69.499,62.593,69.508z"/><path d="M62.352,59.824c0-0.005,0.001-0.009,0.002-0.013L61.6,58.784c-0.014-0.02-0.051-0.063-0.079-0.095    c-0.114-0.13-0.256-0.292-0.276-0.48c-0.033-0.318,0.345-0.464,0.856-0.61c-0.18-0.129-0.184-0.282-0.152-0.393    c0.031-0.103,0.17-0.279,0.31-0.316c0.054-0.015,0.107-0.016,0.158-0.003c-0.237-0.927-1.171-3.848-1.608-5.151    c-0.013-0.039-0.056-0.089-0.079-0.101c-0.024,0.006-0.073,0.028-0.104,0.041c-0.036,0.016-0.072,0.032-0.104,0.043    c-0.185,0.102-1.382,1.031-2.028,1.533c-0.734,0.57-0.734,0.57-0.787,0.589c-0.07,0.026-0.147,0.022-0.216-0.013    c-0.036-0.018-0.069-0.047-0.1-0.082c-0.094,0.149-0.212,0.262-0.383,0.242c-0.075-0.008-0.142-0.05-0.183-0.114    c-0.047-0.073-0.562-1.111-0.597-1.245c0,0,0,0,0,0c-0.004-0.003-0.008-0.006-0.012-0.01l-0.021-0.016    c-0.149-0.115-0.107-0.291-0.085-0.367c-0.079-0.046-0.229-0.131-0.509-0.283l-0.055-0.03c-0.063-0.035-0.108-0.095-0.124-0.165    c-0.039-0.173,0.044-0.292,0.133-0.372c-0.101-0.061-0.226-0.133-0.323-0.189c-0.518-0.298-0.604-0.355-0.646-0.483    c-0.064-0.202,0.107-0.314,0.232-0.395c0.014-0.009,0.031-0.02,0.048-0.031c-0.01-0.071-0.03-0.153-0.051-0.187    c-0.154-0.097-0.396-0.269-0.493-0.357c-0.079-0.062-0.759-0.526-0.88-0.594c-0.081-0.045-0.134-0.123-0.144-0.213    c-0.014-0.126,0.055-0.215,0.12-0.279c-0.122-0.163-0.338-0.434-0.424-0.541c-0.056-0.07-0.096-0.12-0.106-0.134    c-0.147-0.196,0.026-0.385,0.171-0.537c-0.056-0.086-0.117-0.195-0.108-0.321c-0.019-0.167-0.248-1.041-0.425-1.267    c-0.091-0.117-0.194-0.192-0.305-0.224c-0.983-0.28-1.061-0.381-1.108-0.441c-0.121-0.155-0.215-0.325-0.306-0.489    c-0.032-0.058-0.064-0.116-0.097-0.172c-0.02-0.033-0.041-0.072-0.062-0.112c-0.043-0.08-0.087-0.163-0.132-0.201    c-0.088-0.074-0.852-0.553-1.119-0.653c-0.222-0.084-0.471-0.028-0.76,0.171c-0.126,0.086-0.692,0.377-0.884,0.395    c0.004,0.232,0.014,0.442,0.031,0.533c0.059,0.3,0.189,0.538,0.189,0.856c0,0.359-0.171,0.622-0.358,0.926    c-0.197,0.319-0.299,0.683-0.452,1.024c-0.122,0.277-0.345,0.579-0.398,0.879c-0.029,0.166-0.008,0.385,0.045,0.538    c0.06,0.176,0.174,0.322,0.257,0.488c0.049,0.097,0.207,0.438,0.102,0.533c-0.184,0.165-0.36-0.247-0.375-0.353    c-0.024-0.179-0.028-0.331-0.109-0.496c-0.041-0.081-0.146-0.363-0.259-0.341c-0.083,0.016-0.183,0.289-0.243,0.358    c-0.238,0.27-0.633,0.488-0.991,0.511c-0.331,0.023-0.838,0.081-1.135-0.061c-0.124-0.059-0.257-0.145-0.416-0.063    c-0.13,0.067-0.134,0.24-0.211,0.349c-0.1,0.142-0.242,0.237-0.333,0.39c-0.109,0.182-0.14,0.332-0.161,0.541    c-0.045,0.467-0.216,0.838-0.467,1.24c-0.222,0.353-0.433,0.722-0.764,0.989c-0.336,0.269-0.688,0.482-1.044,0.719    c-0.27,0.181-0.64,0.364-0.748,0.679c-0.094,0.277-0.119,0.565,0.129,0.77c0.13,0.108,0.29,0.186,0.429,0.29    c0.306,0.231,0.551,0.333,0.609,0.741c0.042,0.301-0.064,0.631-0.43,0.498c-0.27-0.097-0.18-0.345-0.209-0.563    c-0.027-0.201-0.188-0.479-0.433-0.434c-0.035,0.138,0.12,0.255,0.179,0.365c0.066,0.122,0.106,0.274,0.093,0.422    c-0.013,0.155-0.057,0.226,0.032,0.367c0.068,0.108,0.178,0.239,0.305,0.274c0.254,0.07,0.516-0.224,0.693-0.368    c0.13-0.106,0.301-0.198,0.403-0.337c0.091-0.124,0.141-0.267,0.237-0.388c0.05-0.062,0.079-0.129,0.162-0.125    c0.122,0.215-0.074,0.371-0.143,0.561c-0.015,0.043-0.075,0.216-0.017,0.255c0.089,0.057,0.13-0.151,0.157-0.196    c0.135-0.221,0.277-0.189,0.484-0.273c0.199-0.079,0.183-0.345,0.371-0.429c0.011,0.173-0.098,0.325-0.075,0.477    c0-0.026,0.176,0.055,0.196,0.109c0.021,0.056-0.006,0.168-0.05,0.209c-0.102,0.089-0.291,0.008-0.404-0.011    c-0.09-0.014-0.147-0.054-0.179,0.069c-0.057,0.216,0.239,0.198,0.308,0.322c0.07,0.127-0.082,0.278-0.211,0.273    c-0.157-0.006-0.164-0.193-0.276-0.269c-0.133-0.089-0.232,0.028-0.171,0.172c0.058,0.135,0.257,0.158,0.058,0.241    c-0.234,0.098-0.331-0.107-0.492-0.224c-0.211-0.154-0.475-0.031-0.68,0.125c-0.17,0.13-0.353,0.286-0.113,0.435    c0.232,0.143,0.384,0.112,0.368,0.42c-0.283,0.068-0.272-0.059-0.461-0.192c-0.188-0.131-0.075,0.067-0.196,0.15    c-0.194,0.132-0.127-0.182-0.241-0.213c-0.09-0.025-0.246,0.229-0.312,0.29c-0.228,0.211-0.489,0.429-0.655,0.689    c-0.122,0.194-0.094,0.212,0.084,0.292c0.077,0.036,0.353,0.217,0.207,0.337c-0.09,0.074-0.233-0.103-0.34-0.061    c-0.126,0.052-0.108,0.261-0.093,0.368c0.019,0.137,0.116,0.208-0.052,0.257c-0.174,0.05-0.246-0.089-0.341-0.192    c-0.121-0.132-0.223-0.145-0.368,0.003c-0.072,0.074-0.12,0.212-0.112,0.318c0.025,0.308,0.482,0.234,0.433,0.562    c0-0.004-0.411-0.149-0.463-0.151c-0.144-0.004-0.205,0.017-0.301,0.139c-0.183,0.229-0.221,0.527-0.379,0.768    c-0.168,0.256-0.213,0.547-0.34,0.823c-0.125,0.269-0.27,0.534-0.369,0.814c-0.085,0.241-0.076,0.488-0.076,0.74    c0,0.274-0.006,0.549,0,0.824c0.013,0.528,0.26,1.037,0.46,1.512c0.116,0.274,0.223,0.533,0.356,0.791    c0.071,0.137,0.085,0.237,0.085,0.39c0,0.109-0.022,0.241,0.094,0.288c0.005-0.167,0.035-0.269,0.224-0.172    c0.138,0.071,0.264,0.186,0.409,0.255c0.152,0.071,0.281,0.184,0.432,0.254c0.21,0.097,0.446,0.104,0.664,0.152    c0.808,0.173,1.665,0.226,2.217,0.926c0.149,0.192,0.372,0.615,0.625,0.677c0.001-0.388,0.576-0.241,0.518,0.018    c-0.026,0.116-0.285,0.116-0.223,0.274c0.072,0.185,0.334-0.024,0.446-0.014c0.034,0.224-0.182,0.252-0.223,0.417    c-0.037,0.151,0.124,0.229,0.094,0.384c-0.153,0.036-0.413,0.049-0.448,0.244c-0.034,0.184,0.173,0.385,0.306,0.483    c0.175,0.129,0.405,0.157,0.63,0.144c0.098-0.005,0.245-0.111,0.319-0.096c0.095,0.018,0.12,0.394,0.252,0.488    c0.166,0.117,0.344,0.143,0.325,0.395c-0.178,0.044-0.218-0.203-0.404-0.115c-0.039,0.02-0.047,0.079-0.108,0.101    c-0.082,0.032-0.215-0.009-0.29-0.031c-0.149-0.045-0.271-0.14-0.419-0.189c-0.188-0.064-0.413-0.08-0.608-0.098    c-0.085-0.008-0.174,0.007-0.26-0.002c-0.039-0.004-0.13-0.012-0.164-0.036c-0.041-0.031-0.009-0.109-0.041-0.131    c-0.056-0.036-0.156-0.041-0.217-0.01c-0.091,0.048-0.045,0.101-0.099,0.157c-0.106,0.113-0.256,0.06-0.402,0.115    c-0.149,0.057-0.327,0.178-0.433,0.299c-0.105,0.121-0.135,0.218-0.063,0.362c0.035,0.067,0.095,0.116,0.113,0.193    c0.018,0.076-0.03,0.156-0.017,0.225c0.032,0.176,0.169,0.184,0.321,0.21c0.236,0.04,0.444,0.027,0.649,0.157    c0.149,0.093,0.232,0.249,0.381,0.337c0.189,0.111,0.402,0.14,0.617,0.149c0.592,0.022,1.169-0.032,1.75-0.117    c0.364-0.054,0.668-0.209,1.015-0.314c0.359-0.11,0.729-0.133,1.097-0.197c0.512-0.089,1.03-0.148,1.541-0.246    c0.227-0.044,0.445-0.125,0.674-0.121c0.262,0.003,0.523,0.017,0.782-0.018c0.303-0.042,0.6-0.107,0.899-0.159    c0.337-0.058,0.715-0.148,1.056-0.13c0.046,0.418,0.451-0.042,0.438-0.292c-0.008-0.137-0.053-0.346-0.114-0.47    c-0.086-0.182-0.212-0.174-0.398-0.174c-0.205,0-0.489,0.05-0.685,0c-0.326-0.084,0.271-0.128,0.374-0.128    c0.403,0,0.756-0.021,1.058-0.292c0.317-0.286,0.76,0.031,1.097,0.183c0.201,0.09,0.398,0.198,0.594,0.3    c0.13,0.066,0.246,0.17,0.403,0.146c0.004-0.083,0.002-0.17,0.005-0.254c0.235-0.043,0.348,0.344,0.558,0.042    c0.194-0.277-0.064-0.335-0.193-0.543c-0.039-0.063-0.125-0.268-0.046-0.339c0.137-0.125,0.185,0.131,0.238,0.179    c0.125,0.11,0.249,0.021,0.348-0.079c0.108-0.108,0.153-0.146,0.299-0.183c0.036-0.148-0.176-0.184-0.173-0.317    c0.305-0.078,0.239,0.507,0.641,0.255c0.106-0.067,0.198-0.23,0.337-0.193c0.167,0.045,0.09,0.319,0.157,0.454    c0.126,0.252,0.528,0.398,0.322,0.765c-0.068,0.122-0.217,0.143-0.35,0.117c-0.18-0.038-0.202-0.183-0.337-0.282    c-0.088-0.064-0.313-0.143-0.371,0.008c-0.08,0.203,0.282,0.318,0.407,0.371c0.169,0.071,0.334,0.122,0.464,0.254    c0.1,0.101,0.163,0.226,0.268,0.329c0.255,0.247,0.639-0.113,0.92-0.231c0.391-0.162,0.796-0.204,1.19-0.353    c0.243-0.093,0.651-0.16,0.68-0.442c0.021-0.196-0.076-0.361-0.129-0.543c-0.063-0.216-0.144-0.424-0.231-0.634    c-0.17-0.403-0.26-0.833-0.415-1.232c-0.102-0.267-0.247-0.517-0.329-0.791c-0.062-0.207-0.02-0.499-0.171-0.671    c-0.112-0.128-0.368-0.101-0.532-0.099c-0.27,0-0.55-0.025-0.817,0c-0.154,0.013-0.287,0.17-0.417,0.159    c-0.166-0.011-0.195-0.188-0.108-0.307c0.095-0.13,0.297-0.172,0.424-0.26c0.143-0.1,0.26-0.236,0.425-0.305    c0.144-0.06,0.29-0.045,0.451-0.045c0.428,0,0.194-0.263,0.048-0.47c-0.178-0.256-0.298-0.538-0.481-0.797    c-0.198-0.281-0.372-0.587-0.536-0.89c-0.078-0.143-0.161-0.264,0.004-0.354c0.155-0.085,0.34-0.022,0.439,0.108    c0.088,0.117,0.077,0.278,0.273,0.228c0.185-0.049,0.206-0.213,0.206-0.367c-0.002-0.124-0.066-0.319-0.008-0.433    c0.101-0.2,0.182,0,0.328-0.003c0.123-0.003,0.247-0.361,0.348-0.449c0.077-0.069,0.13-0.191,0.217-0.24    c0.015-0.008,0.089,0.103,0.154,0.064c0.044-0.026,0.04-0.17,0.049-0.214c0.044-0.232,0.156-0.425,0.323-0.595    c0.167-0.17,0.177-0.018,0.361,0.044c0.174,0.059,0.213-0.116,0.159-0.27c-0.044-0.125-0.215-0.194-0.304-0.294    c-0.085-0.097-0.168-0.24-0.21-0.364c0.207,0.146,0.389,0.3,0.578,0.481c0.049,0.048,0.265,0.283,0.321,0.27    c0.064-0.014,0.131-0.26,0.191-0.319c0.144-0.146,0.594-0.243,0.551-0.5c-0.032-0.184-0.253-0.323-0.374-0.448    c-0.161-0.166-0.27-0.293-0.364-0.511c-0.059-0.138-0.183-0.335-0.157-0.492c0.173-0.034,0.382,0.196,0.47,0.319    c0.057,0.081,0.1,0.192,0.205,0.205c0.082,0.01,0.145-0.058,0.212-0.099c0.158-0.1,0.278-0.183,0.27-0.386    c-0.008-0.163-0.145-0.328-0.214-0.479c0.124-0.003,0.296,0.321,0.345,0.427c0.075,0.162,0.001,0.351,0.094,0.515    c0.067,0.12,0.085,0.116,0.181,0.042c0.089-0.068,0.143-0.086,0.258-0.108c0.097-0.018,0.229-0.05,0.291-0.136    c0.067-0.094,0.053-0.264,0.053-0.376C62.362,60.029,62.34,59.927,62.352,59.824z"/></g><g><path d="M84.042,43.216l-0.364-2.387l-6.149-5.161c-0.001,0.001-0.002,0.001-0.004,0.003c-0.237,0.155-0.387-0.444-0.697-0.07    c-0.178,0.218-0.18,0.55-0.286,0.792c-0.062,0.144-0.088,0.237-0.016,0.384c0.072,0.147,0.173,0.236,0.197,0.402    c0.031,0.223-0.067,0.136-0.212,0.246c-0.15,0.112-0.139,0.232-0.049,0.354c0.05,0.068,0.074,0.045,0.096,0.144    c0.017,0.077,0.014,0.211-0.004,0.288c-0.052,0.225-0.176,0.157-0.322,0.043c-0.246-0.193-0.435-0.446-0.636-0.685    c-0.251-0.3-0.521-0.589-0.668-0.955c-0.168-0.425-0.26-0.867-0.451-1.291c-0.055-0.125-0.121-0.264-0.222-0.362    c-0.038-0.039-0.225-0.112-0.231-0.16c-0.015-0.116,0.246-0.125,0.309-0.178c0.121-0.103,0.077-0.264,0.036-0.4    c-0.067-0.228-0.172-0.412-0.317-0.6c-0.113-0.148-0.189-0.327-0.297-0.476c-0.157-0.215-0.634-0.282-0.854-0.153    c-0.126,0.075-0.206,0.231-0.109,0.327c0.116,0.116,0.238,0.048,0.225,0.287c-0.039,0.744-1.031,0.538-1.51,0.453    c-0.2-0.036-0.565-0.089-0.47-0.386c0.045-0.144,0.167-0.129,0.069-0.294c-0.114-0.192-0.287-0.12-0.462-0.172    c-0.192-0.057-0.347-0.202-0.544-0.245c-0.174-0.039-0.309-0.071-0.431,0.075c-0.09,0.107-0.099,0.219-0.272,0.183    c0.006-0.107,0.005-0.342-0.164-0.288c-0.131,0.042-0.121,0.236-0.309,0.102c-0.104-0.073-0.081-0.239-0.205-0.29    c-0.183-0.073-0.132,0.169-0.291,0.173c-0.139,0.004-0.193-0.229-0.294-0.322c-0.129-0.12-0.299-0.256-0.462-0.324    c-0.291-0.121-0.425,0.158-0.627,0.345c-0.082,0.073-0.319,0.273-0.358,0.063c-0.115-0.012-0.197,0.174-0.287,0.223    c-0.099,0.053-0.287,0.044-0.212,0.225c0.057,0.139,0.223,0.095,0.263,0.259c0.039,0.165-0.106,0.266-0.211,0.366    c-0.116,0.108-0.273,0.185-0.342,0.322c-0.067,0.134-0.072,0.305-0.221,0.394c-0.188,0.112-0.262-0.005-0.354-0.158    c-0.054-0.089-0.204-0.224-0.21-0.328c-0.009-0.174,0.1-0.085,0.187-0.165c0.089-0.082,0.064-0.198,0.01-0.303    c-0.053-0.102-0.162-0.153-0.216-0.254c-0.058-0.108-0.03-0.246-0.122-0.344c-0.227-0.242-0.348,0.012-0.425,0.207    c-0.032,0.08-0.071,0.21-0.176,0.225c-0.148,0.021-0.107-0.124-0.206-0.192c-0.104,0.087-0.154,0.225-0.274,0.292    c-0.091,0.051-0.245,0.086-0.354,0.097c-0.225,0.022-0.227-0.096-0.4-0.181c-0.151-0.073-0.274-0.001-0.323,0.136    c-0.124,0.35,0.287,0.458,0.307,0.738c0.011,0.156-0.077,0.216-0.193,0.285c-0.129,0.076-0.268,0.183-0.403,0.242    c-0.116,0.051-0.313,0.042-0.371,0.182c-0.07,0.162,0.066,0.301,0.166,0.398c0.111,0.106,0.243,0.25,0.402,0.278    c0.195,0.035,0.35-0.113,0.564-0.081c0.469,0.071,0.038,0.431,0.173,0.684c0.058,0.107,0.207,0.127,0.259,0.233    c0.094,0.193-0.067,0.375-0.151,0.532c-0.039,0.072-0.054,0.151-0.104,0.212c-0.07,0.086-0.131,0.076-0.133,0.206    c-0.003,0.135,0.107,0.389,0.162,0.515c0.08,0.183,0.173,0.275,0.361,0.37c0.164,0.084,0.328,0.22,0.509,0.265    c0.091,0.022,0.219-0.022,0.255,0.091c0.045,0.142-0.225,0.39-0.325,0.461c-0.286,0.2-0.623,0.292-0.909,0.491    c-0.409,0.285-0.886-0.112-1.205-0.375c-0.187-0.153-0.663-0.541-0.613-0.858l-0.001-0.001c0.008-0.049,0.028-0.097,0.063-0.14    c0.064-0.081,0.289-0.214,0.386-0.254c0.126-0.053,0.257-0.013,0.362,0.066c0.108,0.081,0.166,0.26,0.261,0.317    c0.049,0.03,0.125,0.063,0.142-0.032c0.01-0.049-0.083-0.131-0.112-0.176c-0.079-0.118-0.158-0.224-0.239-0.339    c-0.118-0.171,0.017-0.135,0.094-0.292c0.185-0.377-0.488-0.509-0.717-0.689c-0.177-0.139-0.33-0.309-0.519-0.438    c-0.217-0.149-0.466-0.277-0.702-0.399c-0.341-0.179-0.634-0.357-1.021-0.193c-0.239,0.102-0.467,0.135-0.724,0.161    c-0.177,0.018-0.341-0.009-0.387,0.178c-0.076,0.313,0.403,0.743,0,0.914c-0.098,0.041-0.276,0.099-0.442,0.109v0.001    c-0.069,0.005-0.135,0.002-0.192-0.014l-0.003,0.009l-0.001-0.001l0.002-0.009c-0.083-0.019-0.149-0.064-0.183-0.144    c-0.033-0.081-0.002-0.241,0.009-0.35l0.001,0c0.002-0.018,0.003-0.035,0.005-0.049c0.006-0.183,0.088-0.135,0.144-0.273    c0.077-0.185-0.161-0.283-0.273-0.359c-0.145-0.098-0.235-0.194-0.355-0.321c-0.228-0.242-0.533-0.054-0.787,0.088    c-0.167,0.093-0.135,0.143-0.166,0.318c-0.022,0.13-0.12,0.306-0.253,0.193c-0.216-0.183,0.117-0.703,0.288-0.809    c0.246-0.151,0.674-0.084,0.835-0.366c0.126-0.219-0.031-0.329-0.209-0.424c-0.177-0.094-0.341-0.207-0.511-0.305    c-0.159-0.093-0.44-0.081-0.306,0.169c0.048,0.088,0.165,0.102,0.117,0.222c-0.053,0.134-0.162,0.06-0.229-0.015    c-0.153-0.171-0.185-0.373-0.371-0.532c-0.148-0.125-0.403-0.305-0.557-0.16c-0.079,0.072-0.123,0.223-0.199,0.308    c-0.088,0.098-0.191,0.18-0.307,0.242c-0.121,0.063-0.248,0.138-0.316,0.254c-0.075,0.126-0.092,0.286-0.166,0.419    c-0.249,0.455-0.764,0.681-1.201,0.957c-0.03,0.019-0.058,0.037-0.086,0.057c-0.193,0.13-0.45,0.438-0.681,0.182    c-0.106-0.116-0.479-0.621-0.574-0.213c-0.039,0.162,0.027,0.267-0.08,0.417c-0.071,0.098-0.194,0.168-0.239,0.278    c-0.028,0.064-0.04,0.121-0.042,0.171c-0.012,0.242,0.229,0.33,0.429,0.482c0.378,0.286-0.64,0.555-0.797,0.707    c-0.326,0.316-0.493,0.752-0.724,1.134c-0.11,0.182-0.26,0.315-0.38,0.479c-0.103,0.139-0.123,0.327-0.211,0.475    c-0.122,0.202-0.258,0.402-0.371,0.61c-0.118,0.219-0.237,0.465-0.394,0.658c-0.133,0.162-0.309,0.274-0.426,0.451    c-0.223,0.333-0.449,0.766-0.485,1.167c-0.005,0.059-0.009,0.193-0.011,0.358c0.153-0.056,0.5-0.223,0.603-0.293    c0.428-0.295,0.839-0.372,1.22-0.227c0.32,0.12,1.14,0.632,1.267,0.741c0.116,0.099,0.187,0.23,0.248,0.345    c0.017,0.032,0.034,0.064,0.052,0.093c0.036,0.062,0.07,0.123,0.104,0.184c0.08,0.144,0.156,0.281,0.245,0.4    c0.102,0.054,0.471,0.179,0.869,0.292c0.213,0.06,0.407,0.198,0.562,0.397c0.256,0.327,0.517,1.316,0.53,1.575    c0.01,0.02,0.034,0.056,0.049,0.079c0.062,0.094,0.178,0.268,0.054,0.439c-0.03,0.041-0.073,0.087-0.124,0.14    c-0.01,0.01-0.021,0.022-0.034,0.036c0.559,0.7,0.564,0.731,0.577,0.812c0.015,0.093-0.014,0.169-0.056,0.23    c0.275,0.182,0.685,0.463,0.737,0.509c0.063,0.058,0.304,0.232,0.449,0.321c0.008,0.005,0.015,0.01,0.022,0.015    c0.257,0.199,0.25,0.684,0.25,0.689c-0.005,0.1-0.056,0.172-0.127,0.233c0.079,0.047,0.164,0.096,0.234,0.136    c0.352,0.202,0.526,0.306,0.607,0.389c0.102,0.103,0.106,0.213,0.099,0.269c-0.012,0.097-0.064,0.165-0.122,0.215    c0.362,0.199,0.417,0.24,0.453,0.274c0.131,0.129,0.117,0.289,0.093,0.391c0.041,0.046,0.074,0.102,0.099,0.194    c0.029,0.08,0.22,0.475,0.367,0.773c0.081-0.168,0.14-0.289,0.295-0.308c0.121-0.015,0.236,0.061,0.27,0.178    c0.008,0.027,0.022,0.066,0.039,0.107c0.132-0.102,0.316-0.244,0.505-0.391c1.701-1.32,2.045-1.568,2.164-1.607    c0.021-0.007,0.046-0.019,0.071-0.03c0.089-0.04,0.199-0.089,0.322-0.086c0.289,0.006,0.481,0.268,0.54,0.443    c0.19,0.566,0.628,1.912,1.009,3.134c0.756,2.421,0.722,2.469,0.63,2.599c-0.06,0.081-0.163,0.135-0.268,0.159    c0.032,0.075,0.044,0.156,0.034,0.235c-0.019,0.144-0.111,0.26-0.252,0.317c-0.024,0.01-0.052,0.018-0.127,0.039    c-0.279,0.078-0.435,0.134-0.52,0.174c0.034,0.044,0.078,0.095,0.106,0.125c0.075,0.086,0.135,0.153,0.166,0.234l0.172,0.316    c0.153,0.114,0.296,0.233,0.363,0.323c0.11,0.141,0.144,0.282,0.309,0.376c0.086,0.049,0.142,0.085,0.225,0.018    c0.067-0.053,0.103-0.162,0.183-0.204c0.109-0.059,0.166-0.001,0.193,0.108c0.035,0.141-0.024,0.183-0.138,0.249    c-0.186,0.108-0.345,0.224-0.222,0.451c0.094,0.174,0.261,0.348,0.407,0.483c0.184,0.172,0.351,0.021,0.543-0.05    c0.133-0.049,0.286-0.125,0.431-0.121c0.132,0.002,0.193,0.112,0.272,0.201c0.037,0.042,0.071,0.103,0.136,0.099    c0.082-0.004,0.081-0.071,0.108-0.139c0.027-0.068,0.049-0.129,0.104-0.186c0.064-0.066,0.084-0.064,0.108-0.149    c0.024-0.086,0.032-0.186,0.013-0.274c-0.04-0.18-0.045-0.362-0.092-0.546c-0.097-0.376-0.164-0.741-0.218-1.128    c-0.027-0.194-0.054-0.392-0.089-0.585c-0.018-0.101-0.046-0.251-0.01-0.351c0.041-0.118,0.142-0.124,0.161,0    c0.014,0.095-0.032,0.203-0.041,0.297c-0.015,0.134-0.011,0.283-0.003,0.419c0.006,0.103,0.052,0.151,0.099,0.238    c0.089,0.159,0.12,0.328,0.17,0.494c0.054,0.182,0.062,0.365,0.095,0.557c0.031,0.176,0.044,0.403,0.205,0.496    c0.075,0.044,0.178,0.055,0.266,0.039c0.035-0.006,0.074-0.034,0.109-0.041c0.039-0.007,0.089,0,0.129-0.01    c0.079-0.021,0.122-0.093,0.097-0.183c-0.051-0.178-0.116-0.012-0.171,0.044c-0.103,0.103-0.528,0.064-0.353-0.104    c0.16-0.152,0.348-0.007,0.363-0.29c0.016-0.291-0.1-0.536-0.17-0.809c-0.03-0.117-0.063-0.229-0.055-0.356    c0.005-0.096,0.058-0.273,0.13-0.126c0.086,0.174,0.001,0.428,0.076,0.621c0.066,0.173,0.144,0.348,0.202,0.53    c0.037,0.118,0.116,0.193,0.196,0.274l0.002,0c0.04,0.041,0.08,0.084,0.115,0.133c0.048,0.067,0.1,0.155,0.164,0.204    c0.113,0.088,0.166,0.046,0.22-0.064c0.024-0.05,0.023-0.091,0.089-0.097c0.083-0.006,0.05,0.026,0.075,0.075    c0.041,0.084,0.041,0.18,0.153,0.089c0.184-0.151,0.032-0.358-0.046-0.552c-0.146-0.363-0.181-0.787-0.064-1.169    c0.059-0.189,0.154-0.367,0.244-0.543c0.072-0.14,0.157-0.159,0.301-0.171l0.001,0c0.024,0.106-0.064,0.138-0.128,0.199    c-0.084,0.079-0.127,0.184-0.178,0.283c-0.115,0.217-0.196,0.368-0.196,0.622c-0.001,0.415,0.162,0.904,0.451,1.201    c0.22,0.228,0.469,0.431,0.731,0.612c0.25,0.17,0.481,0.367,0.731,0.537c0.252,0.171,0.531,0.287,0.788,0.44    c0.811,0.482,1.594,1.01,2.42,1.464c0.423,0.233,0.861,0.446,1.246,0.742c0.143,0.11,0.29,0.196,0.434,0.303    c0.102,0.076,0.291,0.224,0.26,0.375c-0.022,0.099-0.117,0.188-0.152,0.288c-0.026,0.076-0.032,0.155-0.032,0.24    c0.001,0.191-0.013,0.305-0.139,0.456c-0.077,0.094-0.187,0.163-0.237,0.277c-0.057,0.129,0.049,0.164,0.165,0.143    c0.13-0.024,0.26-0.12,0.321-0.234c0.042-0.082,0.098-0.154,0.156-0.226c0.018-0.025,0.037-0.049,0.056-0.074    c0.075-0.097,0.134-0.198,0.215-0.29c0.14-0.161,0.286-0.332,0.362-0.533c0.028-0.074,0.036-0.161,0.016-0.236    c-0.019-0.074-0.074-0.144-0.064-0.226c0.01-0.106,0.121-0.16,0.199-0.223c0.095-0.075,0.184-0.16,0.277-0.239    c0.204-0.17,0.449-0.308,0.684-0.428c0.268-0.136,0.524-0.295,0.8-0.416c0.139-0.061,0.283-0.116,0.433-0.148    c0.052-0.011,0.11-0.008,0.153-0.037c0.059-0.042,0.098-0.143,0.131-0.204c0.052-0.09,0.12-0.179,0.156-0.277    c0.063-0.174-0.039-0.406-0.075-0.578c-0.049-0.236-0.192-0.424-0.347-0.597c-0.097-0.106-0.229-0.176-0.345-0.261    c-0.118-0.086-0.203-0.185-0.297-0.297c-0.028-0.035-0.067-0.066-0.077-0.107c0.022-0.001,0.042-0.001,0.06,0l0,0    c0.17,0.013,0.256,0.138,0.372,0.272c0.081,0.096,0.17,0.193,0.261,0.282c0.082,0.08,0.176,0.139,0.257,0.218    c0.17,0.164,0.182,0.339,0.219,0.555c0.015,0.087,0.009,0.255,0.107,0.265c0.106,0.011,0.265-0.107,0.347-0.168    c0.083-0.062,0.136-0.142,0.17-0.231c0.055-0.148,0.055-0.322,0.055-0.48c0-0.263-0.034-0.618,0.213-0.78    c0.016-0.01,0.033-0.022,0.051-0.031l-0.063-0.049c0.088-0.194,0.259-0.318,0.452-0.395c0.22-0.088,0.47-0.058,0.693-0.143    c0.144-0.056,0.272-0.112,0.426-0.138c0.127-0.021,0.212-0.03,0.313-0.104c0.054-0.042,0.161-0.064,0.191-0.136    c0.034-0.085-0.028-0.123-0.061-0.192c-0.048-0.1-0.058-0.228-0.058-0.336c0-0.063-0.013-0.142-0.001-0.204    c0.009-0.046,0.036-0.082,0.041-0.13c0.013-0.114-0.064-0.122-0.122-0.201c-0.061-0.084-0.063-0.171-0.135-0.244    c-0.068-0.069-0.13-0.189-0.17-0.281c-0.039-0.092-0.08-0.205-0.014-0.291c0.054-0.072,0.116-0.098,0.121-0.199    c0.013-0.263-0.032-0.084-0.091-0.199l0.001-1.629l0.313-0.587l-0.08-5.988l-0.515-2.085l3.05-1.134L84.042,43.216z"/><path d="M74.957,65.135c0.007-0.055,0.006-0.111-0.009-0.162c-0.017-0.057-0.019-0.124-0.083-0.146    c-0.059-0.021-0.123,0.009-0.166,0.049c-0.049,0.045,0.206-0.103,0.166-0.049c-0.049,0.068-0.399,0.313-0.461,0.366    c-0.021,0.018-0.039,0.038-0.054,0.059c-0.024,0.036-0.044,0.074-0.064,0.116c-0.022,0.045-0.058,0.085-0.09,0.124    c-0.026,0.031-0.075,0.076-0.088,0.113c-0.015,0.045,0.017,0.102,0.049,0.13c0.065,0.057,0.14,0.049,0.218,0.059    c0.057,0.006,0.11,0.034,0.166,0.044c0.075,0.014,0.12-0.004,0.179-0.051c0.053-0.043,0.092-0.101,0.143-0.146    c0.026-0.023,0.04-0.047,0.049-0.076c0.009-0.029,0.013-0.059,0.013-0.093c0.001-0.053-0.018-0.103-0.012-0.157    C74.92,65.254,74.948,65.196,74.957,65.135z"/><path d="M78.798,67.9c-0.032-0.015-0.061-0.043-0.086-0.066c-0.05-0.042-0.097-0.092-0.139-0.143    c-0.106-0.125-0.215-0.272-0.303-0.408c-0.113-0.174-0.19-0.387-0.272-0.574c-0.073-0.169-0.175-0.347-0.325-0.456    c-0.079-0.056-0.203,0.02-0.272,0.061c-0.087,0.053-0.196,0.093-0.273,0.154c-0.041,0.032-0.073,0.069-0.117,0.098    c-0.112,0.074-0.237,0.141-0.353,0.207c-0.14,0.077-0.155-0.036-0.233-0.133c-0.042-0.053-0.114-0.147-0.183-0.164l-0.002-0.004    c-0.115,0.044-0.231,0.092-0.314,0.179c-0.067,0.068-0.188,0.35-0.296,0.35c-0.005,0-0.016,0.004-0.023,0.005    c-0.008-0.133,0.261-0.317,0.144-0.452c-0.105-0.124-0.365-0.121-0.498-0.205c-0.143-0.09-0.127-0.246-0.235-0.346    c-0.101-0.097-0.242,0.022-0.351,0.04c-0.135,0.022-0.283-0.001-0.421-0.001c-0.168,0-0.265-0.004-0.265,0.184    c0,0.062-0.018,0.159,0.001,0.218c0.024,0.075,0.129,0.151,0.188,0.196c0.126,0.093,0.367,0.183,0.413,0.344    c0.04,0.133-0.08,0.22-0.106,0.335c-0.03,0.134-0.027,0.283-0.054,0.421c-0.021,0.098,0.032,0.163,0.064,0.25    c0.029,0.082,0.056,0.176,0.064,0.261c0.013,0.146-0.064,0.334-0.01,0.472c0.06,0.156,0.275,0.133,0.259,0.336    c-0.176,0.031-0.202-0.209-0.362-0.15c-0.064,0.025-0.124,0.071-0.184,0.104c-0.073,0.042-0.094,0.075-0.138,0.006    c-0.087-0.135-0.205-0.294-0.264-0.451c-0.029-0.08-0.024-0.151-0.13-0.138c-0.063,0.008-0.142,0.054-0.175,0.106    c-0.109,0.17-0.062,0.388-0.31,0.435c-0.103,0.019-0.241,0.012-0.305-0.079c-0.076-0.108-0.014-0.209,0.076-0.276    c0.188-0.138,0.441-0.155,0.6-0.339c0.165-0.188,0.196-0.45,0.312-0.668c0.088-0.164,0.229-0.397,0.137-0.576    c-0.087-0.171-0.228-0.264-0.415-0.309c-0.099-0.025-0.199-0.068-0.297-0.088c-0.106-0.021-0.153,0.015-0.218,0.095    c-0.064,0.08-0.123,0.155-0.178,0.242c-0.058,0.09-0.066,0.176-0.095,0.282c-0.038,0.138-0.134,0.211-0.25,0.288    c-0.069,0.046-0.219,0.097-0.162,0.202c0.061,0.113,0.175,0.122,0.12,0.273c-0.044,0.122-0.151,0.217-0.24,0.31    c-0.084,0.087-0.149,0.162-0.209,0.27c-0.054,0.102-0.098,0.224-0.166,0.314c-0.058,0.076-0.144,0.131-0.171,0.225    c-0.025,0.081-0.025,0.18-0.041,0.264c-0.011,0.047-0.004,0.197-0.041,0.233c-0.072,0.07-0.071-0.141-0.071-0.193    c-0.002-0.089-0.008-0.17,0.032-0.25c0.031-0.063,0.064-0.113,0.072-0.185c0.009-0.076-0.014-0.158,0.009-0.232    c0.049-0.148,0.204-0.318,0.312-0.427c0.116-0.116,0.211-0.187,0.152-0.373c-0.024-0.077-0.116-0.178-0.207-0.151    c-0.088,0.026-0.074,0.12-0.104,0.194c-0.089,0.215-0.292,0.33-0.477,0.457c-0.115,0.081-0.247,0.135-0.371,0.2    c-0.095,0.051-0.194,0.075-0.301,0.075c-0.119,0-0.241,0-0.357-0.022c-0.09-0.018-0.168-0.058-0.258-0.084    c-0.141-0.039-0.383-0.071-0.432,0.107c-0.056,0.203-0.079,0.39,0.022,0.583c0.058,0.11,0.132,0.21,0.193,0.318    c0.042,0.072,0.129,0.201,0.112,0.287c-0.136,0.031-0.268-0.276-0.31-0.377c-0.062-0.146-0.156-0.236-0.325-0.175    c-0.129,0.046-0.236,0.282-0.136,0.4c0.058,0.07,0.194,0.104,0.269,0.155c0.054,0.036,0.128,0.081,0.163,0.138    c0.067,0.104-0.021,0.107-0.103,0.062c-0.062-0.035-0.111-0.086-0.169-0.126c-0.138-0.097-0.26-0.259-0.442-0.18    c-0.159,0.069-0.207,0.246-0.339,0.345c-0.081,0.059-0.192,0.095-0.279,0.147c-0.112,0.066-0.218,0.139-0.322,0.215    c-0.169,0.122-0.355,0.243-0.507,0.382c-0.017,0.014-0.046,0.061-0.067,0.07c-0.071,0.029-0.03-0.016-0.088-0.045    c-0.076-0.04-0.169,0.001-0.234,0.047c-0.146,0.098-0.3,0.14-0.469,0.189c-0.237,0.069-0.447,0.186-0.667,0.294    c-0.213,0.104-0.439,0.182-0.656,0.272c-0.217,0.088-0.421,0.127-0.651,0.156c-0.227,0.026-0.442,0.063-0.671,0.029    c-0.23-0.033-0.417-0.216-0.668-0.135c-0.171,0.054-0.331,0.182-0.466,0.297c-0.177,0.154-0.372,0.28-0.565,0.413    c-0.533,0.369-1.06,0.751-1.599,1.114c-0.196,0.133-0.391,0.249-0.594,0.371c-0.14,0.085-0.289,0.159-0.437,0.231    c-0.163,0.078-0.416,0.196-0.578,0.081c-0.064-0.045-0.104-0.068-0.197-0.037c-0.091,0.029-0.116,0.116-0.191,0.159    c-0.113,0.064-0.098-0.08-0.136-0.146c-0.057-0.097-0.11-0.04-0.186,0.006c-0.121,0.072-0.241,0.183-0.387,0.202    c-0.193,0.027-0.279-0.177-0.451-0.225c-0.167-0.048-0.285,0.182-0.39,0.29c-0.126,0.128-0.217,0.284-0.343,0.417    c-0.093,0.099-0.294,0.254-0.443,0.228c-0.085-0.016-0.133-0.075-0.231-0.066c-0.079,0.008-0.09,0.044-0.155,0.08    c-0.141,0.076-0.38,0.063-0.523-0.006c-0.164-0.081-0.296-0.218-0.467-0.281c-0.129-0.046-0.227,0.049-0.332,0.116    c-0.134,0.084-0.265,0.171-0.407,0.242c-0.191,0.095-0.374,0.242-0.587,0.277c-0.033,0.005-0.084,0.017-0.116,0.001    c-0.038-0.017-0.041-0.059-0.08-0.066c-0.067-0.013-0.133,0.067-0.21,0.064c-0.077-0.004-0.102-0.064-0.168-0.074    c-0.061-0.007-0.14,0.052-0.193,0.081c-0.219,0.117-0.404,0.229-0.66,0.268c-0.243,0.035-0.506,0.103-0.738,0.183    c-0.434,0.148-0.357,0.762-0.358,1.127c0,0.202,0.102,0.416,0.192,0.595c0.029,0.058,0.085,0.181,0.144,0.212    c0.11,0.056,0.184-0.048,0.263-0.103c0.144-0.103,0.334-0.129,0.5-0.185c0.255-0.087,0.515-0.2,0.761-0.312    c0.258-0.118,0.514-0.215,0.783-0.299c0.274-0.085,0.56-0.087,0.836-0.159c0.458-0.119,0.934-0.186,1.392-0.321    c0.111-0.032,0.223-0.112,0.331-0.136c0.159-0.038,0.161,0.282,0.362,0.225c0.065-0.018,0.122-0.082,0.186-0.111    c0.097-0.044,0.196-0.077,0.291-0.127c0.28-0.148,0.555-0.256,0.862-0.344c0.378-0.107,0.755-0.228,1.136-0.321    c0.57-0.138,1.125-0.389,1.637-0.674c0.229-0.127,0.444-0.307,0.689-0.402c0.051-0.019,0.142-0.071,0.197-0.035    c0.046,0.03,0.031,0.096,0.104,0.107c0.068,0.012,0.085-0.041,0.13-0.088c0.148-0.155,0.393-0.207,0.586-0.292    c0.338-0.149,0.647-0.333,0.966-0.517c0.493-0.283,0.999-0.542,1.507-0.798c0.259-0.131,0.519-0.262,0.778-0.394    c0.185-0.095,0.343-0.168,0.542-0.224c0.181-0.052,0.366-0.098,0.546-0.153c0.309-0.096,0.613-0.214,0.917-0.321    c0.267-0.093,0.545-0.147,0.815-0.23c0.358-0.112,0.718-0.22,1.084-0.31c0.331-0.08,0.624-0.265,0.964-0.321    c0.269-0.044,0.523-0.13,0.789-0.176c0.188-0.032,0.363-0.106,0.547-0.156c0.178-0.048,0.35-0.092,0.514-0.178    c0.159-0.083,0.366-0.096,0.541-0.149c0.223-0.067,0.443-0.104,0.67-0.153c0.265-0.058,0.647-0.254,0.915-0.109    c0.253,0.137,0.518,0.198,0.804,0.214c0.152,0.009,0.308,0,0.461,0c0.138,0,0.287,0.015,0.42-0.015    c0.339-0.082,0.63-0.284,0.908-0.485c0.125-0.09,0.25-0.205,0.387-0.277c0.114-0.061,0.272-0.188,0.403-0.196    c0.1-0.005,0.189,0.094,0.27,0.159l0.597,0.031l-0.008-1.718C78.874,67.905,78.82,67.908,78.798,67.9z"/><path d="M71.111,64.622c-0.051,0.106-0.099,0.224-0.179,0.312c-0.107,0.12-0.192,0.226-0.255,0.377    c-0.068,0.161-0.144,0.315-0.225,0.47c-0.049,0.094-0.133,0.197-0.197,0.305c-0.052,0.088-0.09,0.178-0.088,0.269    c0.008,0.281,0.523,0.134,0.693,0.178c0.117,0.028,0.241,0.166,0.322,0.246c0.121,0.121,0.153,0.201,0.153,0.368    c0,0.037,0,0.085,0.009,0.128c0.009,0.043,0.028,0.081,0.064,0.099c0.109,0.053,0.209-0.113,0.252-0.182    c0.162-0.254,0.474-0.391,0.705-0.579c0.209-0.173,0.422-0.33,0.636-0.496c0.067-0.052,0.135-0.092,0.144-0.177    c0.012-0.109-0.104-0.207-0.178-0.277c-0.132-0.124-0.244-0.234-0.34-0.39c-0.066-0.106-0.122-0.219-0.183-0.329    c-0.054-0.098-0.095-0.204-0.17-0.291c-0.049-0.058-0.111-0.109-0.161-0.165c-0.045-0.051-0.086-0.12-0.158-0.139    c-0.091-0.024-0.143-0.026-0.218-0.086c-0.107-0.088-0.333-0.251-0.393-0.018c-0.052,0.207,0.291,0.202,0.264,0.336    c-0.091,0.034-0.23,0.01-0.291-0.069c-0.029-0.037-0.045-0.175-0.101-0.183c-0.068-0.009-0.038,0.063-0.041,0.099    C71.169,64.495,71.14,64.56,71.111,64.622z"/><path d="M70.94,67.001c-0.139-0.141-0.354-0.251-0.548-0.252c-0.108-0.003-0.205,0.059-0.289,0.121    c-0.147,0.107-0.326,0.234-0.389,0.407c-0.018,0.05-0.026,0.103-0.021,0.16c0.019,0.227,0.197,0.432,0.402,0.51    c0.104,0.039,0.208,0.125,0.322,0.12c0.111-0.004,0.215-0.077,0.318-0.112c0.131-0.044,0.269-0.022,0.35-0.149    c0.068-0.107,0.134-0.232,0.121-0.366c-0.004-0.044-0.015-0.086-0.032-0.124C71.125,67.195,71.031,67.095,70.94,67.001z"/><path d="M70.843,63.592c-0.077-0.049-0.158-0.085-0.24-0.125c-0.158-0.079-0.345-0.124-0.509-0.035    c-0.202,0.108-0.287,0.308-0.426,0.475c-0.126,0.151-0.341,0.194-0.443,0.36c-0.115,0.185-0.053,0.347,0.051,0.521    c0.05,0.083,0.11,0.147,0.149,0.237c0.039,0.086,0.034,0.168,0.057,0.252c0.041,0.153,0.193,0.238,0.237,0.387    c0.034,0.112,0.047,0.21,0.047,0.327c0,0.089-0.011,0.251,0.121,0.232c0.076-0.01,0.127-0.084,0.162-0.162    c0.021-0.046,0.036-0.096,0.046-0.133c0.071-0.245,0.137-0.489,0.178-0.743c0.02-0.117,0.039-0.206-0.049-0.295    c-0.046-0.049-0.119-0.087-0.103-0.162c0.15-0.031,0.185,0.16,0.27,0.234c0.056,0.049,0.059,0.035,0.067-0.041    c0.006-0.064-0.008-0.13,0-0.196c0.011-0.116,0.009-0.207,0.096-0.295c0.048-0.048,0.181-0.136,0.175-0.21    c-0.091-0.02-0.26,0.013-0.334-0.049c-0.098-0.084,0.07-0.148,0.142-0.161c0.082-0.015,0.17-0.001,0.24-0.059    c0.054-0.045,0.068-0.12,0.122-0.172c0.029-0.03,0.067-0.025,0.064-0.075C70.963,63.651,70.881,63.616,70.843,63.592z"/><path d="M68.983,67.359c-0.022,0.045-0.059,0.13-0.039,0.186c0.027,0.072,0.15,0.103,0.212,0.057    c0.024-0.019,0.029-0.058,0.052-0.082c0.026-0.028,0.061-0.04,0.093-0.062c0.072-0.049,0.111-0.12,0.136-0.202    c0.046-0.149-0.04-0.216-0.179-0.218l-0.001-0.004C69.147,67.069,69.022,67.279,68.983,67.359z"/><path d="M68.859,64.241c0.101-0.158,0.064-0.287-0.019-0.452c-0.093-0.185-0.053-0.413-0.144-0.597    c-0.065-0.13-0.184-0.238-0.257-0.364c-0.061-0.106-0.228-0.247-0.351-0.165c-0.098,0.063-0.1,0.235-0.109,0.336    c-0.006,0.08-0.023,0.224,0.01,0.296c0.004,0.009,0.009,0.016,0.014,0.024c0.036,0.054,0.104,0.095,0.139,0.146    c0.037,0.053,0.059,0.099,0.119,0.131c0.061,0.034,0.154,0.035,0.171,0.119c0.036,0.166-0.34-0.044-0.276,0.153    c0.027,0.082,0.134,0.151,0.171,0.231c0.019,0.039,0.045,0.108,0.037,0.155c-0.009,0.064-0.043,0.058-0.094,0.09    c-0.022,0.072,0.079,0.116,0.111,0.167c0.036,0.059,0.043,0.127,0.087,0.186c0.061,0.084,0.114,0.142,0.149,0.24    c0.039,0.111,0.068,0.223,0.101,0.335c0.042,0.139,0.125,0.35,0.267,0.42c0.086,0.044,0.148-0.013,0.144-0.101    c-0.003-0.073-0.054-0.111-0.101-0.164c-0.159-0.175-0.212-0.384-0.246-0.611c-0.03-0.201-0.069-0.368,0.058-0.544    C68.846,64.26,68.854,64.251,68.859,64.241z"/><path d="M68.673,67.622c-0.008,0-0.016,0-0.026,0.001c-0.069,0.008-0.106,0.085-0.151,0.13c-0.084,0.08-0.202,0.131-0.272,0.227    c-0.026,0.036-0.042,0.074-0.046,0.116c-0.029,0.212,0.186,0.474,0.281,0.615c0.087,0.13,0.193,0.362,0.382,0.339    c0.199-0.024,0.165-0.388,0.183-0.541c0.008-0.063,0.063-0.209,0.013-0.256c-0.076-0.072-0.161,0.017-0.197-0.112    C68.803,68.009,68.909,67.622,68.673,67.622z"/><path d="M65.235,65.474c-0.029,0.009-0.068,0.013-0.101,0.009c-0.07-0.006-0.065-0.05-0.107-0.064    c-0.09-0.029-0.092,0.049-0.114,0.113c-0.03,0.085-0.106,0.178,0.012,0.236c0.104,0.052,0.179,0.048,0.255,0.137    c0.063,0.073,0.148,0.147,0.161,0.24c0.011,0.067-0.005,0.143-0.003,0.21c0.004,0.106,0.013,0.318,0.157,0.329    c0.084,0.006,0.2-0.172,0.241-0.241c0.063-0.11,0.067-0.246,0.14-0.357c0.092-0.14,0.255-0.35,0.401-0.168    c0.092,0.117,0.164,0.308,0.297,0.384c0.155,0.088,0.187-0.22,0.265-0.317c0.054,0.045,0.023,0.17,0.04,0.239    c0.026,0.119,0.119,0.213,0.169,0.322c0.048,0.103,0.098,0.206,0.138,0.314c0.028,0.072,0.041,0.213,0.118,0.249    c0.074,0.033,0.198-0.04,0.265,0.017c0.085,0.074-0.031,0.143-0.098,0.167c-0.181,0.068-0.31,0.206-0.178,0.382    c0.113,0.147,0.086,0.301-0.014,0.447c-0.056,0.08-0.209,0.208-0.176,0.315c0.037,0.126,0.24,0.061,0.225,0.201    c-0.008,0.084-0.077,0.099-0.146,0.121c-0.073,0.024-0.115,0.059-0.17,0.12c-0.041,0.046-0.067,0.104-0.127,0.031    c-0.037-0.045-0.022-0.12-0.024-0.174c-0.128,0.016-0.259,0.035-0.385,0.054c-0.103,0.016-0.175,0.026-0.258,0.091    c-0.064,0.052-0.121,0.095-0.201,0.117c-0.157,0.044-0.349,0.077-0.395,0.259c-0.061,0.239,0.25,0.278,0.397,0.323    c0.13,0.039,0.37,0.188,0.504,0.075c0.057-0.049,0.074-0.214,0.162-0.205c0.068,0.007,0.093,0.163,0.135,0.212    c0.051,0.061,0.124,0.076,0.201,0.043c0.086-0.035,0.202-0.097,0.278-0.151c0.114-0.083,0.201-0.203,0.312-0.291    c0.079-0.061,0.196-0.086,0.256-0.17c0.09-0.126,0.054-0.372,0.042-0.518c-0.008-0.083-0.022-0.177-0.008-0.26    c0.015-0.084,0.046-0.165,0.068-0.25c0.006-0.028,0.013-0.057,0.017-0.086c0.014-0.094,0.009-0.216,0.05-0.303    c0.046-0.1,0.137-0.176,0.225-0.237c0.13-0.088,0.312-0.244,0.178-0.424c-0.076-0.103-0.275-0.051-0.337-0.157    c-0.027-0.046-0.01-0.233,0.034-0.264c0.063-0.043,0.115,0.022,0.126-0.09c0.008-0.076-0.053-0.138-0.05-0.207    c0.009-0.155,0.305,0.026,0.325-0.155c0.023-0.216-0.268-0.104-0.348-0.161c-0.048-0.034-0.08-0.104-0.118-0.147    c-0.059-0.061-0.103-0.121-0.137-0.2c-0.02-0.046-0.031-0.098-0.056-0.143c-0.019-0.034-0.058-0.045-0.048-0.09    c0.015-0.075,0.204-0.057,0.271-0.075c0.138-0.035,0.191-0.14,0.236-0.264c0.034-0.093,0.068-0.159-0.011-0.24    c-0.065-0.065-0.146-0.102-0.237-0.107c-0.102-0.004-0.136-0.001-0.197,0.071c-0.039,0.046-0.086,0.104-0.143,0.059    c-0.066-0.054-0.04-0.192-0.048-0.265c-0.007-0.063-0.035-0.118-0.066-0.17c-0.016-0.027-0.061-0.072-0.066-0.101    c-0.035-0.201,0.323,0.009,0.381,0.019c0.063,0.013,0.147,0.031,0.176-0.04c0.025-0.057-0.002-0.172-0.024-0.225    c-0.031-0.076-0.088-0.126-0.135-0.193c-0.019-0.03-0.027-0.058-0.057-0.08c-0.033-0.024-0.101-0.015-0.113-0.057    c-0.031-0.091,0.112-0.081,0.151-0.13c0.066-0.084-0.01-0.197-0.063-0.264c-0.083-0.109-0.138-0.217-0.263-0.268    c-0.109-0.045-0.168-0.087-0.229-0.193c-0.018-0.031-0.089-0.126-0.088-0.159c0.003-0.043,0.07-0.066,0.104-0.085    c0.053-0.032,0.185-0.054,0.219-0.103c0.048-0.067-0.027-0.143-0.071-0.186c-0.054-0.051-0.084-0.103-0.129-0.158    c-0.052-0.065-0.123-0.115-0.171-0.186c-0.052-0.076-0.074-0.185-0.081-0.281c-0.012-0.166-0.006-0.319-0.12-0.451    c-0.089,0.052-0.124,0.169-0.129,0.267c-0.001,0.026-0.01,0.088-0.001,0.112c0.011,0.026,0.055,0.039,0.064,0.063    c0.034,0.093-0.143,0.276-0.21,0.331c-0.057,0.045-0.168,0.072-0.242,0.08c-0.131,0.015-0.183-0.111-0.233-0.209    c-0.067-0.131-0.122-0.242-0.24-0.335c-0.071-0.055-0.148-0.153-0.247-0.133c-0.082,0.016-0.17,0.1-0.212,0.175    c-0.052,0.093-0.021,0.128,0.037,0.21c0.065,0.091,0.112,0.187,0.159,0.289c0.05,0.107,0.066,0.224,0.112,0.335    c0.04,0.099,0.083,0.161,0.087,0.27c0.005,0.143-0.071,0.22-0.135,0.339c-0.062,0.117-0.069,0.321-0.194,0.396    c-0.044,0.027-0.16,0.027-0.17,0.094c-0.012,0.084,0.151,0.057,0.196,0.113c0.05,0.063,0.018,0.152-0.035,0.209    c-0.062,0.071-0.138,0.108-0.175,0.202c-0.033,0.088-0.046,0.192-0.072,0.283c-0.057,0.202-0.134,0.372-0.212,0.564    c-0.083,0.202,0.183,0.211,0.186,0.384C65.389,65.404,65.316,65.451,65.235,65.474z"/><path d="M65.523,67.863c0.067-0.038,0.072-0.069,0.157-0.069c0.074,0,0.152,0.006,0.224-0.005    c0.072-0.011,0.115-0.026,0.173-0.071c0.048-0.036,0.111-0.056,0.156-0.092c0.04-0.031,0.044-0.077,0.099-0.042    c0.066,0.044,0.052,0.142,0.107,0.188c0.054,0.045,0.119-0.005,0.17-0.031c0.086-0.042,0.189-0.056,0.271-0.109    c0.072-0.046,0.115-0.096,0.084-0.176c-0.026-0.067-0.052-0.136-0.082-0.205c-0.032-0.079-0.065-0.157-0.107-0.231    c-0.037-0.067-0.09-0.116-0.129-0.18c-0.027-0.047-0.075-0.188-0.144-0.148c-0.056,0.032-0.054,0.137-0.054,0.189    c0,0.138,0.092,0.367-0.048,0.465c-0.084,0.059-0.146,0.002-0.183-0.075c-0.018-0.039-0.022-0.08-0.036-0.12    c-0.014-0.039-0.04-0.058-0.064-0.094c-0.02-0.028-0.026-0.074-0.036-0.107c-0.026-0.085-0.055-0.167-0.114-0.234    c-0.067-0.075-0.091-0.01-0.125,0.061c-0.034,0.075-0.088,0.097-0.135,0.157c-0.051,0.066-0.103,0.148-0.127,0.228    c-0.026,0.087-0.062,0.13-0.144,0.164c-0.039,0.017-0.117,0.053-0.09,0.112c0.01,0.025,0.048,0.021,0.062,0.035    c0.027,0.026,0.022,0.052,0.022,0.088C65.431,67.641,65.351,67.961,65.523,67.863z"/><path d="M64.463,69.467c-0.205,0.093-0.344,0.259-0.453,0.458c-0.104,0.186,0.214,0.472,0.404,0.437    c0.054-0.01,0.07-0.099,0.121-0.135c0.039-0.029,0.103-0.043,0.146-0.067c0.068-0.037,0.1-0.048,0.103-0.127    c0.003-0.058-0.042-0.144-0.006-0.2c0.05-0.076,0.167-0.066,0.222-0.003c0.073,0.085,0.04,0.227,0.012,0.321    c-0.034,0.116-0.018,0.171,0.022,0.281c0.053,0.148,0.062,0.347,0.255,0.35c0.198,0.004,0.355-0.006,0.501-0.154    c0.164-0.166,0.372-0.288,0.357-0.546c-0.016-0.252-0.422-0.263-0.59-0.367c-0.207-0.13-0.267-0.435-0.496-0.529    c-0.095-0.04-0.153-0.022-0.233,0.043C64.713,69.322,64.595,69.405,64.463,69.467z"/></g></g></svg>
