<svg xmlns="http://www.w3.org/2000/svg" data-name="Layer 1" viewBox="0 0 100 125" x="0px" y="0px"><title>56 all</title><path d="M20.84,81.31a2.72,2.72,0,0,0,1.76,4.75h.56c4.15,0,10.19-.92,14.65-3.54a35.41,35.41,0,1,0-11.89-7.3A23.43,23.43,0,0,1,20.84,81.31Zm7.21-5.77a1,1,0,0,0-.2-1.25A33.23,33.23,0,0,1,16.69,51.53a33.39,33.39,0,0,1,66.62-4.47A33.38,33.38,0,0,1,38.06,80.49a1,1,0,0,0-.89.09c-4.31,2.71-10.5,3.58-14.52,3.49A.7.7,0,0,1,22,83.6a.71.71,0,0,1,.2-.79A26.09,26.09,0,0,0,28.05,75.54Z"/><path d="M43.79,60.71a1,1,0,0,0,1.41,0l20-20a1,1,0,1,0-1.41-1.41L44.5,58.59l-8.29-8.29a1,1,0,0,0-1.41,1.41Z"/></svg>
