<svg xmlns="http://www.w3.org/2000/svg" xmlns:xlink="http://www.w3.org/1999/xlink" version="1.1" x="0px" y="0px" viewBox="206 206 100 125" enable-background="new 206 206 100 100" xml:space="preserve"><g><path fill="#ffffff" d="M279.851,249.119c-0.137-0.211-0.202-0.447-0.202-0.681h-0.002v-23.802c0-6.237-5.075-11.312-11.313-11.312   h-32.318c-6.237,0-11.312,5.075-11.312,11.312v74.038h33.262v-13.878c0-0.344,0.139-0.653,0.362-0.88   c0.227-0.224,0.534-0.363,0.88-0.363h9.126c6.237,0,11.314-5.077,11.314-11.314v-10.491c0-0.686,0.554-1.242,1.243-1.242h6.404   L279.851,249.119z M249.694,225.335h9.515c0.686,0,1.242,0.557,1.242,1.243c0,0.686-0.557,1.243-1.242,1.243h-9.515   c-0.686,0-1.243-0.557-1.243-1.243C248.45,225.892,249.008,225.335,249.694,225.335z M243.13,265.945   c0,0.687-0.557,1.243-1.242,1.243h-8.201c-0.686,0-1.241-0.557-1.241-1.243v-8.2c0-0.687,0.556-1.243,1.241-1.243h8.201   c0.686,0,1.242,0.557,1.242,1.243V265.945z M243.13,250.362c0,0.686-0.557,1.243-1.242,1.243h-8.201   c-0.686,0-1.241-0.557-1.241-1.243v-8.201c0-0.686,0.556-1.243,1.241-1.243h8.201c0.686,0,1.242,0.557,1.242,1.243V250.362z    M243.13,234.779c0,0.686-0.557,1.243-1.242,1.243h-8.201c-0.686,0-1.241-0.557-1.241-1.243v-8.201   c0-0.686,0.556-1.243,1.241-1.243h8.201c0.686,0,1.242,0.557,1.242,1.243V234.779z M271.064,267.188h-21.37   c-0.686,0-1.243-0.557-1.243-1.243c0-0.686,0.558-1.242,1.243-1.242h21.37c0.687,0,1.242,0.557,1.242,1.242   C272.306,266.632,271.75,267.188,271.064,267.188z M248.45,257.745c0-0.687,0.558-1.243,1.243-1.243h9.515   c0.686,0,1.242,0.557,1.242,1.243s-0.557,1.242-1.242,1.242h-9.515C249.008,258.987,248.45,258.431,248.45,257.745z    M271.064,251.605h-21.37c-0.686,0-1.243-0.557-1.243-1.243c0-0.686,0.558-1.243,1.243-1.243h21.37   c0.687,0,1.242,0.557,1.242,1.243C272.306,251.048,271.75,251.605,271.064,251.605z M248.45,242.161   c0-0.686,0.558-1.243,1.243-1.243h9.515c0.686,0,1.242,0.557,1.242,1.243c0,0.686-0.557,1.243-1.242,1.243h-9.515   C249.008,243.404,248.45,242.847,248.45,242.161z M271.064,236.021h-21.37c-0.686,0-1.243-0.557-1.243-1.243   c0-0.688,0.558-1.243,1.243-1.243h21.37c0.687,0,1.242,0.554,1.242,1.243C272.306,235.464,271.75,236.021,271.064,236.021z"/><rect x="234.93" y="227.821" fill="#e8fdf5" width="5.715" height="5.715"/><rect x="234.93" y="243.404" fill="#e8fdf5" width="5.715" height="5.715"/><rect x="234.93" y="258.987" fill="#e8fdf5" width="5.715" height="5.716"/></g></svg>
