<svg xmlns="http://www.w3.org/2000/svg" data-name="Layer 1" viewBox="0 0 100 125" x="0px" y="0px" fill="#ffffff"><title>Artboard 23</title><path d="M73.05,56.23A10.8,10.8,0,1,0,84,67,10.88,10.88,0,0,0,73.05,56.23Zm0,16.59A5.8,5.8,0,1,1,79,67,5.88,5.88,0,0,1,73.05,72.82ZM92.34,89.42V96.5a2.5,2.5,0,0,1-5,0V89.42a4.86,4.86,0,0,0-4.91-4.79H80.77l-5.16,5.08a3.67,3.67,0,0,1-5.12,0l-5.16-5.08H63.67a4.86,4.86,0,0,0-4.91,4.79V96.5a2.5,2.5,0,0,1-5,0V89.42a9.86,9.86,0,0,1,9.91-9.79h2.68a2.5,2.5,0,0,1,1.75.72l4.95,4.86L78,80.36a2.5,2.5,0,0,1,1.75-.72h2.68A9.86,9.86,0,0,1,92.34,89.42ZM26.95,77.82A10.8,10.8,0,1,0,16,67,10.88,10.88,0,0,0,26.95,77.82Zm0-16.59A5.8,5.8,0,1,1,21,67,5.88,5.88,0,0,1,26.95,61.23Zm19.29,28.2V96.5a2.5,2.5,0,0,1-5,0V89.42a4.86,4.86,0,0,0-4.91-4.79H34.67l-5.16,5.08a3.67,3.67,0,0,1-5.12,0l-5.16-5.08H17.57a4.86,4.86,0,0,0-4.91,4.79V96.5a2.5,2.5,0,0,1-5,0V89.42a9.86,9.86,0,0,1,9.91-9.79h2.68a2.5,2.5,0,0,1,1.75.72l4.95,4.86,4.95-4.86a2.5,2.5,0,0,1,1.75-.72h2.68A9.86,9.86,0,0,1,46.24,89.42ZM61.37,42.74l11.44,9.18a2.5,2.5,0,0,0,4.06-2V42.74h5.27a7.1,7.1,0,0,0,7.09-7.09V8.09A7.1,7.1,0,0,0,82.14,1H54.59A6.59,6.59,0,0,0,50,2.72,7.06,7.06,0,0,0,45.41,1H17.85a7.1,7.1,0,0,0-7.09,7.09V35.65a7.1,7.1,0,0,0,7.09,7.09H23.1V50a2.5,2.5,0,0,0,4.06,1.95l11.47-9.21h6.77A7.06,7.06,0,0,0,50,41a6.71,6.71,0,0,0,4.56,1.72ZM51.35,24a3.85,3.85,0,0,0-3.85,3.85v7.84a2.1,2.1,0,0,1-2.09,2.09H37.76a2.5,2.5,0,0,0-1.56.55L28.1,44.79V40.24a2.5,2.5,0,0,0-2.5-2.5H17.85a2.09,2.09,0,0,1-2.09-2.09V8.09A2.09,2.09,0,0,1,17.85,6H45.41A2.1,2.1,0,0,1,47.5,8.09v7.84a3.85,3.85,0,0,0,3.85,3.85h.29A3.91,3.91,0,0,0,54,19a3.55,3.55,0,0,1,2.14-.73,3.62,3.62,0,0,1,.94,7.13A3.52,3.52,0,0,1,54,24.76a3.88,3.88,0,0,0-2.35-.8ZM52.5,35.69s0,0,0,0v-6a8.49,8.49,0,0,0,5.79.54,8.62,8.62,0,0,0-2.17-17,8.45,8.45,0,0,0-3.62.81v-6s0,0,0,0A2.09,2.09,0,0,1,54.59,6H82.14a2.1,2.1,0,0,1,2.09,2.09V35.65a2.1,2.1,0,0,1-2.09,2.09H74.38a2.5,2.5,0,0,0-2.5,2.5v4.52l-8.06-6.47a2.5,2.5,0,0,0-1.56-.55H54.59A2.09,2.09,0,0,1,52.5,35.69Z"/></svg>
